<svg width="498" height="481" viewBox="0 0 498 481" fill="none" xmlns="http://www.w3.org/2000/svg">
<g clip-path="url(#clip0_2128_4)">
<path d="M454.326 460.164C453.794 460.188 453.267 460.049 452.817 459.764C452.367 459.479 452.015 459.063 451.81 458.572C451.604 458.081 451.555 457.539 451.668 457.019C451.781 456.499 452.052 456.026 452.443 455.665L452.621 454.958C452.598 454.901 452.574 454.845 452.55 454.788C452.014 453.523 451.116 452.444 449.968 451.688C448.82 450.931 447.474 450.53 446.098 450.535C444.723 450.54 443.38 450.951 442.238 451.717C441.095 452.482 440.205 453.567 439.678 454.836C437.573 459.901 434.892 464.974 434.232 470.329C433.942 472.696 434.064 475.096 434.595 477.421C429.65 466.647 427.082 454.937 427.066 443.084C427.065 440.11 427.23 437.138 427.561 434.183C427.835 431.759 428.215 429.354 428.7 426.965C431.351 414.005 437.041 401.857 445.304 391.52C449.303 389.34 452.538 385.989 454.571 381.916C455.308 380.452 455.828 378.89 456.117 377.277C455.666 377.336 454.416 370.473 454.756 370.052C454.127 369.099 453.002 368.625 452.315 367.695C448.9 363.071 444.195 363.878 441.739 370.163C436.492 372.808 436.441 377.195 439.661 381.414C441.709 384.098 441.991 387.73 443.788 390.604C443.603 390.84 443.411 391.069 443.226 391.306C439.846 395.647 436.9 400.309 434.43 405.224C435.031 399.717 434.314 394.147 432.339 388.971C430.337 384.148 426.585 380.085 423.281 375.915C419.312 370.906 411.174 373.092 410.474 379.442C410.468 379.503 410.461 379.565 410.455 379.626C410.945 379.903 411.426 380.196 411.896 380.507C412.486 380.901 412.944 381.464 413.209 382.122C413.473 382.78 413.533 383.503 413.379 384.196C413.225 384.888 412.866 385.518 412.348 386.003C411.829 386.488 411.177 386.806 410.475 386.914L410.403 386.925C410.578 388.692 410.887 390.443 411.327 392.163C407.088 408.537 416.24 414.5 429.307 414.768C429.595 414.916 429.876 415.064 430.165 415.204C427.684 422.228 426.127 429.543 425.535 436.968C425.199 441.348 425.219 445.748 425.594 450.125L425.572 449.97C424.625 445.102 422.026 440.711 418.213 437.536C412.55 432.89 404.549 431.179 398.439 427.444C397.79 427.027 397.035 426.805 396.263 426.803C395.492 426.801 394.736 427.02 394.085 427.433C393.433 427.846 392.914 428.437 392.588 429.135C392.261 429.834 392.142 430.611 392.243 431.375C392.251 431.429 392.26 431.483 392.268 431.538C393.179 431.908 394.066 432.335 394.923 432.816C395.414 433.092 395.894 433.386 396.364 433.696C396.955 434.09 397.412 434.654 397.677 435.312C397.942 435.97 398.001 436.693 397.848 437.385C397.694 438.078 397.335 438.708 396.816 439.193C396.298 439.678 395.645 439.995 394.943 440.104L394.871 440.115C394.82 440.122 394.775 440.129 394.724 440.137C396.28 443.848 398.464 447.264 401.18 450.235C403.831 464.529 415.214 465.885 427.391 461.723H427.399C428.735 467.522 430.67 473.167 433.175 478.566H453.809C453.883 478.337 453.95 478.101 454.016 477.872C452.106 477.992 450.189 477.878 448.307 477.532C449.838 475.656 451.369 473.764 452.9 471.888C452.934 471.853 452.966 471.816 452.996 471.777C453.772 470.817 454.556 469.864 455.333 468.904L455.333 468.902C455.375 465.959 455.036 463.021 454.326 460.164Z" fill="#F2F2F2"/>
<path d="M419.944 276.884C425.413 257.051 435.614 240.158 452.084 227.163C452.736 226.158 453.76 225.451 454.933 225.199C456.105 224.947 457.33 225.17 458.338 225.818L495.932 250.064C496.938 250.714 497.645 251.738 497.898 252.909C498.15 254.08 497.927 255.303 497.278 256.31L465.138 306.031C464.486 307.037 463.462 307.743 462.289 307.995C461.117 308.248 459.892 308.025 458.884 307.376L421.29 283.131C420.284 282.48 419.577 281.457 419.324 280.286C419.072 279.115 419.295 277.891 419.944 276.884Z" fill="#F2F2F2"/>
<path d="M432.536 263.726C433.945 253.247 442.624 242.534 453.198 231.761C453.809 230.819 454.768 230.158 455.866 229.921C456.964 229.685 458.111 229.894 459.055 230.501L491.364 251.338C492.306 251.948 492.969 252.906 493.205 254.003C493.442 255.1 493.233 256.245 492.625 257.188L464.024 301.434C463.414 302.375 462.454 303.037 461.356 303.273C460.258 303.509 459.111 303.301 458.167 302.693L438.153 289.785C433.953 287.07 431.003 282.801 429.95 277.916C428.897 273.031 429.827 267.927 432.536 263.726Z" fill="white"/>
<path d="M435.418 306.454C430.648 286.441 431.443 266.73 439.612 247.417C439.698 246.223 440.255 245.111 441.161 244.326C442.067 243.541 443.248 243.147 444.444 243.23L489.081 246.394C490.277 246.48 491.39 247.037 492.176 247.942C492.962 248.846 493.356 250.026 493.273 251.221L489.079 310.257C488.993 311.452 488.435 312.564 487.53 313.349C486.624 314.134 485.443 314.528 484.247 314.444L439.61 311.281C438.414 311.194 437.301 310.638 436.515 309.733C435.729 308.828 435.335 307.649 435.418 306.454Z" fill="#F2F2F2"/>
<path d="M440.109 288.865C436.291 279.003 438.732 265.44 442.805 250.911C442.886 249.792 443.408 248.751 444.256 248.016C445.105 247.281 446.21 246.912 447.331 246.99L485.692 249.709C486.812 249.789 487.855 250.311 488.591 251.158C489.327 252.005 489.696 253.11 489.618 254.229L485.886 306.763C485.805 307.882 485.284 308.924 484.435 309.659C483.587 310.394 482.481 310.763 481.36 310.685L457.596 309C452.606 308.641 447.963 306.319 444.684 302.545C441.406 298.77 439.761 293.85 440.109 288.865Z" fill="white"/>
<path d="M439.267 182.909L420.145 112.211C419.326 109.218 417.361 106.667 414.676 105.108C411.99 103.549 408.799 103.107 405.79 103.877C404.233 104.276 402.774 104.987 401.502 105.968C400.23 106.948 399.17 108.177 398.389 109.579C397.608 110.982 397.12 112.529 396.957 114.125C396.793 115.722 396.957 117.335 397.438 118.867L419.556 191.696L431.128 236.516C429.443 237.802 428.194 239.574 427.553 241.593C426.911 243.612 426.907 245.779 427.541 247.8C428.175 249.821 429.417 251.598 431.098 252.89C432.779 254.181 434.816 254.925 436.935 255.019C439.053 255.114 441.149 254.554 442.939 253.417C444.728 252.281 446.123 250.621 446.935 248.664C447.747 246.708 447.936 244.549 447.477 242.481C447.018 240.413 445.933 238.537 444.368 237.106L439.267 182.909Z" fill="#FFB6B6"/>
<path d="M301.357 195.139L320.967 124.575C321.789 121.582 321.401 118.388 319.885 115.679C318.37 112.971 315.849 110.967 312.867 110.098C311.324 109.649 309.706 109.519 308.111 109.714C306.516 109.91 304.978 110.429 303.59 111.238C302.202 112.047 300.994 113.13 300.039 114.42C299.084 115.711 298.402 117.183 298.034 118.745L279.914 192.668L267.007 237.123C264.901 237.371 262.923 238.261 261.341 239.671C259.759 241.082 258.65 242.945 258.165 245.006C257.679 247.068 257.841 249.229 258.629 251.196C259.416 253.163 260.79 254.84 262.565 255.999C264.339 257.159 266.428 257.744 268.548 257.677C270.667 257.609 272.714 256.891 274.411 255.621C276.108 254.351 277.372 252.589 278.032 250.576C278.692 248.563 278.715 246.396 278.099 244.37L301.357 195.139Z" fill="#FFB6B6"/>
<path d="M413.579 466.197L401.082 466.196L395.138 418.052L413.581 418.053L413.579 466.197Z" fill="#FFB6B6"/>
<path d="M414.018 479.218L375.591 479.217V478.731C375.591 474.769 377.167 470.969 379.972 468.168C382.777 465.366 386.581 463.792 390.548 463.792L397.568 458.473L410.664 463.793L414.019 463.793L414.018 479.218Z" fill="#2F2E41"/>
<path d="M325.64 466.323L313.338 464.131L315.946 415.69L334.103 418.925L325.64 466.323Z" fill="#FFB6B6"/>
<path d="M323.785 479.218L285.954 472.48L286.039 472.002C286.736 468.101 288.955 464.637 292.209 462.37C295.463 460.104 299.484 459.221 303.39 459.916L311.235 455.911L323.193 463.444L326.496 464.032L323.785 479.218Z" fill="#2F2E41"/>
<path d="M326.858 244.835C326.858 244.835 315.212 261.312 315.687 266.841C316.162 272.37 320.274 267.959 316.162 272.37C312.049 276.781 309.652 273.822 311.673 279.272C313.694 284.721 314.516 281.192 313.694 284.721C312.871 288.25 314.516 423.224 314.516 423.224H335.932C335.932 423.224 348.009 344.96 346.481 341.306C344.952 337.652 344.987 339.243 346.614 335.36C348.242 331.477 349.774 326.858 349.774 326.858L366.701 279.272L379.759 346.272L395.129 425.887H415.652C415.652 425.887 419.166 308.811 420.72 307.352C422.274 305.894 420.415 302.615 418.465 300.726C416.516 298.836 416.904 296.918 417.533 293.025C418.161 289.132 420.811 286.961 420.72 284.518C420.629 282.074 426.387 243.258 417.338 237.083C408.29 230.908 326.858 244.835 326.858 244.835Z" fill="#2F2E41"/>
<path d="M398.465 80.7132L374.509 74.5127L363.327 59.1074L336.771 62.3683L331.118 83.3812L312.212 94.3429C346.102 94.5452 327.852 192.617 332.833 198.944C336.886 204.094 312.6 216.344 320.212 224.158C327.823 231.972 325.009 228.845 323.243 237.352C321.477 245.86 308.602 254.863 323.243 254.774C337.884 254.684 426.231 253.424 423.707 243.339C421.183 233.253 421.223 235.814 417.416 229.491C413.61 223.168 411.049 226.701 412.329 217.371C413.61 208.04 409.45 200.823 412.348 196.694C416.796 190.356 412.314 144.607 408.119 145.828L398.465 80.7132Z" fill="#FF8563"/>
<path d="M391.625 81.0402C391.625 81.0402 409.148 73.6042 415.459 87.4715C417.474 91.9006 419.171 103.026 420.807 100.559C422.442 98.0916 420.864 103.5 421.876 103.507C422.78 103.513 424.169 102.053 423.119 107.082C422.79 108.731 422.885 110.437 423.394 112.041C423.904 113.644 424.811 115.092 426.033 116.25L395.576 134.47L391.625 81.0402Z" fill="#FF8563"/>
<path d="M325.787 93.6469C325.787 93.6469 308.263 86.2109 301.953 100.078C300.178 103.978 300.62 112.644 297.164 111.671C293.707 110.698 296.161 114.364 295.705 115.637C295.197 117.057 297.416 121.073 294.299 119.668C291.183 118.262 291.379 128.857 291.379 128.857L321.835 147.076L325.787 93.6469Z" fill="#FF8563"/>
<path d="M334.095 72.8783L329.046 81.7029C329.046 81.7029 315.163 89.2669 315.163 90.5276C315.163 91.7882 317.687 102.082 315.163 110.172C312.639 118.262 319.982 133.477 321.474 145.997C327.784 198.944 309.018 218.183 305.066 251.892L345.116 263.576C345.116 263.576 351.764 174.992 351.764 154.821C351.764 134.651 334.095 72.8783 334.095 72.8783Z" fill="#2F2E41"/>
<path d="M370.696 69.0963L381.013 74.9578C381.013 74.9578 394.514 77.9313 394.676 79.1816C394.837 80.4319 394.885 93.7207 398.423 101.422C401.961 109.124 400.986 113.219 410.515 135.987C415.383 147.62 426.56 240.694 426.56 240.694L388.333 257.391C388.333 257.391 370.411 170.381 367.831 150.376C365.252 130.37 370.696 69.0963 370.696 69.0963Z" fill="#2F2E41"/>
<path d="M344.898 57.0771C359.311 57.0771 370.995 45.4066 370.995 31.0103C370.995 16.614 359.311 4.94348 344.898 4.94348C330.486 4.94348 318.802 16.614 318.802 31.0103C318.802 45.4066 330.486 57.0771 344.898 57.0771Z" fill="#FFB6B6"/>
<path d="M362.073 51.2631C355.904 46.4468 364.337 25.2593 354.149 29.7817C354.149 29.7817 341.699 21.8675 339.197 27.0682C336.301 33.0902 325.999 30.3583 319.672 28.2328C320.169 27.0782 320.523 25.8669 320.725 24.6262C319.556 25.5454 318.319 26.3732 317.023 27.1022C316.154 26.6384 315.385 26.0083 314.76 25.248C314.142 24.5419 313.756 23.6641 313.653 22.7324C313.55 21.8006 313.734 20.8597 314.182 20.0359C315.235 18.4192 317.408 17.9217 318.687 16.4858C318.835 16.2839 318.931 16.0492 318.968 15.8018C319.005 15.5544 318.982 15.3018 318.9 15.0655C318.747 14.4878 318.724 13.8836 318.832 13.296C318.94 12.7084 319.177 12.1519 319.525 11.666C319.873 11.1801 320.324 10.7769 320.846 10.485C321.368 10.1931 321.948 10.0198 322.544 9.97739C322.784 9.98472 323.022 9.93292 323.237 9.82657C324.311 9.1701 325.303 8.38825 326.192 7.49753C324.709 7.56537 326.522 -1.50071 341.223 0.216443C344.924 0.0807827 346.857 4.15816 350.502 4.80261C359.337 -0.240035 367.223 7.03401 371.06 13.9872C374.897 20.9404 379.051 43.3489 362.073 51.2631Z" fill="#2F2E41"/>
<path d="M250.721 13.8683H16.7906C12.3402 13.872 8.07298 15.6389 4.9252 18.7814C1.77742 21.9238 0.00615864 26.1852 0 30.6305V241.18C0.00578726 245.626 1.77664 249.888 4.92424 253.032C8.07184 256.176 12.3392 257.945 16.7906 257.951H250.721C255.171 257.945 259.437 256.176 262.583 253.031C265.73 249.887 267.498 245.625 267.502 241.18V30.6305C267.498 26.1861 265.729 21.9249 262.583 18.7823C259.436 15.6397 255.17 13.8723 250.721 13.8683Z" fill="white"/>
<path d="M143.835 62.1928H118.843C117.616 62.1928 116.439 61.7058 115.571 60.8388C114.703 59.9719 114.215 58.7961 114.215 57.57C114.215 56.344 114.703 55.1682 115.571 54.3012C116.439 53.4343 117.616 52.9473 118.843 52.9473H143.835C145.062 52.9473 146.24 53.4343 147.107 54.3012C147.975 55.1682 148.463 56.344 148.463 57.57C148.463 58.7961 147.975 59.9719 147.107 60.8388C146.24 61.7058 145.062 62.1928 143.835 62.1928Z" fill="#FF8563"/>
<path d="M475.204 274.593H450.213C448.985 274.593 447.808 274.106 446.94 273.239C446.072 272.372 445.584 271.196 445.584 269.97C445.584 268.744 446.072 267.568 446.94 266.701C447.808 265.835 448.985 265.348 450.213 265.348H475.204C476.432 265.348 477.609 265.835 478.477 266.701C479.345 267.568 479.832 268.744 479.832 269.97C479.832 271.196 479.345 272.372 478.477 273.239C477.609 274.106 476.432 274.593 475.204 274.593Z" fill="#FF8563"/>
<path d="M208.628 159.024H54.0504C52.823 159.024 51.6458 158.537 50.7779 157.67C49.9099 156.803 49.4224 155.627 49.4224 154.401C49.4224 153.175 49.9099 151.999 50.7779 151.132C51.6458 150.265 52.823 149.778 54.0504 149.778H208.628C209.855 149.778 211.032 150.265 211.9 151.132C212.768 151.999 213.256 153.175 213.256 154.401C213.256 155.627 212.768 156.803 211.9 157.67C211.032 158.537 209.855 159.024 208.628 159.024Z" fill="#E6E6E6"/>
<path d="M208.628 189.534H54.0504C52.823 189.534 51.6458 189.047 50.7779 188.18C49.9099 187.313 49.4224 186.137 49.4224 184.911C49.4224 183.685 49.9099 182.509 50.7779 181.642C51.6458 180.775 52.823 180.288 54.0504 180.288H208.628C209.855 180.288 211.032 180.775 211.9 181.642C212.768 182.509 213.256 183.685 213.256 184.911C213.256 186.137 212.768 187.313 211.9 188.18C211.032 189.047 209.855 189.534 208.628 189.534Z" fill="#E6E6E6"/>
<path d="M208.628 220.044H54.0504C52.823 220.044 51.6458 219.557 50.7779 218.69C49.9099 217.823 49.4224 216.648 49.4224 215.421C49.4224 214.195 49.9099 213.02 50.7779 212.153C51.6458 211.286 52.823 210.799 54.0504 210.799H208.628C209.855 210.799 211.032 211.286 211.9 212.153C212.768 213.02 213.256 214.195 213.256 215.421C213.256 216.648 212.768 217.823 211.9 218.69C211.032 219.557 209.855 220.044 208.628 220.044Z" fill="#E6E6E6"/>
<path d="M177.033 76.0631H85.6471C81.1966 76.0668 76.9295 77.8337 73.7817 80.9762C70.6339 84.1187 68.8626 88.38 68.8564 92.8253V120.312C68.8622 124.759 70.6331 129.021 73.7807 132.165C76.9283 135.309 81.1957 137.078 85.6471 137.084H177.033C181.483 137.078 185.749 135.308 188.896 132.164C192.042 129.02 193.81 124.758 193.814 120.312V92.8253C193.81 88.3809 192.041 84.1198 188.895 80.9771C185.748 77.8345 181.482 76.0672 177.033 76.0631ZM191.963 120.312C191.963 124.27 190.389 128.066 187.587 130.864C184.786 133.663 180.986 135.235 177.024 135.235H111.423C100.624 135.235 90.2684 130.95 82.6328 123.323C74.9973 115.696 70.7077 105.352 70.7077 94.566V92.8253C70.714 88.8704 72.2903 85.0795 75.0908 82.2839C77.8914 79.4882 81.6877 77.9161 85.6471 77.9122H177.033C180.991 77.9164 184.786 79.489 187.585 82.2848C190.384 85.0807 191.959 88.8714 191.963 92.8253V120.312Z" fill="#E6E6E6"/>
<path d="M132.363 116.494C141.053 116.494 148.098 109.457 148.098 100.777C148.098 92.096 141.053 85.0591 132.363 85.0591C123.672 85.0591 116.627 92.096 116.627 100.777C116.627 109.457 123.672 116.494 132.363 116.494Z" fill="#E6E6E6"/>
<path d="M168.563 137.084L98.1147 136.834L120.329 131.287L123.097 122.162L144.395 122.041L150.773 131.065L166.879 135.235L168.341 135.614L168.563 137.084Z" fill="#E6E6E6"/>
<path d="M123.42 110.812C126.797 108.175 122.181 96.5779 127.757 99.0534C127.757 99.0534 134.572 94.7213 135.942 97.5681C137.527 100.864 143.166 99.369 146.629 98.2055C146.357 97.5735 146.163 96.9105 146.053 96.2313C146.692 96.7345 147.37 97.1876 148.079 97.5867C148.555 97.3328 148.976 96.9879 149.318 96.5717C149.656 96.1852 149.867 95.7047 149.924 95.1947C149.98 94.6847 149.879 94.1697 149.634 93.7188C149.058 92.8338 147.868 92.5615 147.168 91.7755C147.087 91.665 147.034 91.5365 147.014 91.4011C146.994 91.2657 147.007 91.1274 147.052 90.9981C147.135 90.6819 147.148 90.3511 147.089 90.0295C147.03 89.7079 146.9 89.4032 146.71 89.1373C146.519 88.8713 146.272 88.6505 145.987 88.4908C145.701 88.331 145.384 88.2362 145.057 88.213C144.926 88.217 144.795 88.1886 144.677 88.1304C144.09 87.7711 143.547 87.3431 143.06 86.8555C143.872 86.8927 142.88 81.9301 134.833 82.8701C132.807 82.7958 131.749 85.0276 129.754 85.3804C124.918 82.6202 120.601 86.6018 118.501 90.4078C116.4 94.2138 114.126 106.48 123.42 110.812Z" fill="#E6E6E6"/>
<path d="M250.721 13.8683H16.7906C12.3402 13.872 8.07298 15.6389 4.9252 18.7814C1.77742 21.9238 0.00615864 26.1852 0 30.6305V241.18C0.00578726 245.626 1.77664 249.888 4.92424 253.032C8.07184 256.176 12.3392 257.945 16.7906 257.951H250.721C255.171 257.945 259.437 256.176 262.583 253.031C265.73 249.887 267.498 245.625 267.502 241.18V30.6305C267.498 26.1861 265.729 21.9249 262.583 18.7823C259.436 15.6397 255.17 13.8723 250.721 13.8683ZM265.651 241.18C265.651 245.137 264.077 248.933 261.275 251.731C258.474 254.53 254.674 256.102 250.712 256.102H122.367C106.54 256.102 90.8691 252.988 76.2475 246.939C61.6258 240.889 48.3403 232.022 37.1494 220.844C25.9585 209.666 17.0814 196.396 11.0249 181.791C4.96843 167.186 1.85122 151.532 1.85123 135.724V30.6305C1.85753 26.6756 3.4338 22.8847 6.23439 20.089C9.03497 17.2934 12.8312 15.7212 16.7906 15.7174H250.721C254.679 15.7216 258.474 17.2942 261.273 20.09C264.072 22.8858 265.647 26.6766 265.651 30.6305V241.18Z" fill="#E6E6E6"/>
<path d="M495.117 480.716L203.218 481C202.927 480.999 202.648 480.882 202.442 480.676C202.237 480.469 202.122 480.19 202.122 479.899C202.122 479.608 202.237 479.329 202.442 479.123C202.648 478.916 202.927 478.8 203.218 478.798L495.117 478.514C495.409 478.516 495.687 478.632 495.893 478.839C496.098 479.045 496.214 479.324 496.214 479.615C496.214 479.906 496.098 480.185 495.893 480.392C495.687 480.598 495.409 480.715 495.117 480.716Z" fill="#CACACA"/>
</g>
<defs>
<clipPath id="clip0_2128_4">
<rect width="498" height="481" fill="white"/>
</clipPath>
</defs>
</svg>
