<?xml version="1.0" encoding="UTF-8"?>
<svg id="Layer_2" data-name="Layer 2" xmlns="http://www.w3.org/2000/svg" viewBox="0 0 1170.06 240.2">
  <defs>
    <style>
      .cls-1 {
        fill: #ff8563;
        stroke-width: 0px;
      }
    </style>
  </defs>
  <g id="Layer_1-2" data-name="Layer 1">
    <path class="cls-1" d="M254.79,225.33l-84.68-56.53,24.93-37.35c32.4,20.07,55.16,54.2,59.75,93.88Z"/>
    <path class="cls-1" d="M266.15,24.94l-57.05,85.46c-14.06-8.83-29.66-15.43-46.3-19.31L223.6,0l42.54,24.94Z"/>
    <path class="cls-1" d="M188.39,240.2H0c0-38.49,17.01-73.01,43.93-96.44,13.97-12.16,30.61-21.34,48.92-26.54,11.12-3.16,22.85-4.85,34.98-4.85,6.71,0,13.31.52,19.75,1.52l-18.41,27.57-27.33,40.95,40.94,27.33,45.62,30.45Z"/>
    <g>
      <path class="cls-1" d="M396.25,185.24h-78.11c.54,7,2.79,12.35,6.76,16.05,3.97,3.7,8.85,5.55,14.63,5.55,8.61,0,14.6-3.63,17.96-10.9h36.73c-1.89,7.4-5.28,14.06-10.19,19.98-4.91,5.92-11.07,10.56-18.47,13.93-7.4,3.36-15.68,5.05-24.83,5.05-11.04,0-20.86-2.35-29.47-7.06-8.61-4.71-15.34-11.43-20.18-20.18-4.84-8.74-7.27-18.97-7.27-30.68s2.39-21.93,7.16-30.68c4.77-8.74,11.47-15.47,20.08-20.18,8.61-4.71,18.5-7.06,29.67-7.06s20.59,2.29,29.06,6.86c8.48,4.58,15.1,11.1,19.88,19.58,4.77,8.48,7.16,18.37,7.16,29.67,0,3.23-.2,6.59-.61,10.09ZM361.53,166.07c0-5.92-2.02-10.63-6.06-14.13-4.04-3.5-9.08-5.25-15.14-5.25s-10.67,1.68-14.63,5.05c-3.97,3.36-6.43,8.14-7.37,14.33h43.19Z"/>
      <path class="cls-1" d="M465.68,200.98l24.42-80.33h36.73l-39.96,112.62h-42.58l-39.96-112.62h36.93l24.42,80.33Z"/>
      <path class="cls-1" d="M591.01,124.79c6.05-3.56,12.78-5.35,20.18-5.35v36.53h-9.49c-8.61,0-15.07,1.85-19.37,5.55-4.31,3.7-6.46,10.19-6.46,19.48v52.27h-34.51v-112.62h34.51v18.77c4.04-6.19,9.08-11.07,15.14-14.63Z"/>
      <path class="cls-1" d="M733.3,185.24h-78.11c.54,7,2.79,12.35,6.76,16.05,3.97,3.7,8.85,5.55,14.63,5.55,8.61,0,14.6-3.63,17.96-10.9h36.73c-1.89,7.4-5.28,14.06-10.19,19.98-4.91,5.92-11.07,10.56-18.47,13.93-7.4,3.36-15.68,5.05-24.83,5.05-11.04,0-20.86-2.35-29.47-7.06-8.61-4.71-15.34-11.43-20.18-20.18-4.84-8.74-7.27-18.97-7.27-30.68s2.39-21.93,7.16-30.68c4.77-8.74,11.47-15.47,20.08-20.18,8.61-4.71,18.5-7.06,29.67-7.06s20.59,2.29,29.06,6.86c8.48,4.58,15.1,11.1,19.88,19.58,4.77,8.48,7.16,18.37,7.16,29.67,0,3.23-.2,6.59-.61,10.09ZM698.58,166.07c0-5.92-2.02-10.63-6.06-14.13-4.04-3.5-9.08-5.25-15.14-5.25s-10.67,1.68-14.63,5.05c-3.97,3.36-6.43,8.14-7.37,14.33h43.19Z"/>
      <path class="cls-1" d="M913.73,120.65l-30.48,112.62h-38.15l-17.76-73.06-18.37,73.06h-37.94l-30.68-112.62h34.51l15.94,80.53,18.97-80.53h36.53l19.17,80.13,15.74-80.13h32.49Z"/>
      <path class="cls-1" d="M1032.41,185.24h-78.11c.54,7,2.79,12.35,6.76,16.05,3.97,3.7,8.85,5.55,14.63,5.55,8.61,0,14.6-3.63,17.96-10.9h36.73c-1.89,7.4-5.28,14.06-10.19,19.98-4.91,5.92-11.07,10.56-18.47,13.93-7.4,3.36-15.68,5.05-24.83,5.05-11.04,0-20.86-2.35-29.47-7.06-8.61-4.71-15.34-11.43-20.18-20.18-4.84-8.74-7.27-18.97-7.27-30.68s2.39-21.93,7.16-30.68c4.77-8.74,11.47-15.47,20.08-20.18,8.61-4.71,18.5-7.06,29.67-7.06s20.59,2.29,29.06,6.86c8.48,4.58,15.1,11.1,19.88,19.58,4.77,8.48,7.16,18.37,7.16,29.67,0,3.23-.2,6.59-.61,10.09ZM997.69,166.07c0-5.92-2.02-10.63-6.06-14.13-4.04-3.5-9.08-5.25-15.14-5.25s-10.67,1.68-14.63,5.05c-3.97,3.36-6.43,8.14-7.37,14.33h43.19Z"/>
      <path class="cls-1" d="M1099.62,123.88c6.06-3.23,12.98-4.84,20.79-4.84,9.28,0,17.69,2.36,25.23,7.06,7.53,4.71,13.49,11.44,17.86,20.18,4.37,8.75,6.56,18.91,6.56,30.48s-2.19,21.77-6.56,30.58c-4.37,8.81-10.33,15.61-17.86,20.38-7.54,4.78-15.95,7.16-25.23,7.16-7.94,0-14.87-1.58-20.79-4.74-5.92-3.16-10.56-7.37-13.93-12.61v15.74h-34.51V83.92h34.51v52.68c3.23-5.25,7.87-9.49,13.93-12.72ZM1127.77,156.48c-4.78-4.91-10.67-7.37-17.66-7.37s-12.68,2.49-17.46,7.47c-4.78,4.98-7.16,11.78-7.16,20.38s2.39,15.41,7.16,20.38c4.77,4.98,10.6,7.47,17.46,7.47s12.71-2.52,17.56-7.57c4.84-5.05,7.27-11.87,7.27-20.49s-2.39-15.37-7.16-20.28Z"/>
    </g>
  </g>
</svg>