<svg width="517" height="298" viewBox="0 0 517 298" fill="none" xmlns="http://www.w3.org/2000/svg">
<g clip-path="url(#clip0_2089_4)">
<path d="M258.5 298C401.266 298 517 291.334 517 283.11C517 274.887 401.266 268.221 258.5 268.221C115.734 268.221 0 274.887 0 283.11C0 291.334 115.734 298 258.5 298Z" fill="#F2F2F2"/>
<path d="M470.669 0H82.3281V12.3734H470.669V0Z" fill="#F2F2F2"/>
<path d="M92.72 9.20666C94.4859 9.20666 95.9175 7.77293 95.9175 6.00434C95.9175 4.23576 94.4859 2.80203 92.72 2.80203C90.954 2.80203 89.5225 4.23576 89.5225 6.00434C89.5225 7.77293 90.954 9.20666 92.72 9.20666Z" fill="#FF8563"/>
<path d="M103.112 9.20666C104.878 9.20666 106.31 7.77293 106.31 6.00434C106.31 4.23576 104.878 2.80203 103.112 2.80203C101.346 2.80203 99.9146 4.23576 99.9146 6.00434C99.9146 7.77293 101.346 9.20666 103.112 9.20666Z" fill="#FF8563"/>
<path d="M113.504 9.20666C115.27 9.20666 116.701 7.77293 116.701 6.00434C116.701 4.23576 115.27 2.80203 113.504 2.80203C111.738 2.80203 110.306 4.23576 110.306 6.00434C110.306 7.77293 111.738 9.20666 113.504 9.20666Z" fill="#FF8563"/>
<path d="M82.6034 195.696L82.3281 195.933V279.401H470.669V132.786L466.041 133.138L82.6034 195.696Z" fill="#3F3D56"/>
<path d="M218.798 82.7694H110.354V87.1487H218.798V82.7694Z" fill="#3F3D56"/>
<path d="M218.798 92.404H110.354V96.7833H218.798V92.404Z" fill="#3F3D56"/>
<path d="M147.085 102.038H110.354V106.418H147.085V102.038Z" fill="#3F3D56"/>
<path d="M439.95 204.35H331.505V208.729H439.95V204.35Z" fill="white"/>
<path d="M439.95 213.985H331.505V218.364H439.95V213.985Z" fill="white"/>
<path d="M368.237 223.619H331.505V227.998H368.237V223.619Z" fill="white"/>
<path d="M264.128 275.364C266.484 275.364 268.394 273.451 268.394 271.092C268.394 268.732 266.484 266.819 264.128 266.819C261.772 266.819 259.862 268.732 259.862 271.092C259.862 273.451 261.772 275.364 264.128 275.364Z" fill="#F2F2F2"/>
<path d="M276.499 275.791C278.855 275.791 280.764 273.878 280.764 271.519C280.764 269.159 278.855 267.246 276.499 267.246C274.143 267.246 272.233 269.159 272.233 271.519C272.233 273.878 274.143 275.791 276.499 275.791Z" fill="#F2F2F2"/>
<path d="M288.869 276.218C291.225 276.218 293.135 274.305 293.135 271.946C293.135 269.586 291.225 267.674 288.869 267.674C286.513 267.674 284.604 269.586 284.604 271.946C284.604 274.305 286.513 276.218 288.869 276.218Z" fill="#F2F2F2"/>
<path d="M276.538 274.936C278.422 274.936 279.95 273.406 279.95 271.519C279.95 269.631 278.422 268.101 276.538 268.101C274.653 268.101 273.125 269.631 273.125 271.519C273.125 273.406 274.653 274.936 276.538 274.936Z" fill="#3F3D56"/>
<path d="M182.846 132.897H146.115V141.29H182.846V132.897Z" fill="#3F3D56"/>
<path d="M401.174 246.466H364.443V254.859H401.174V246.466Z" fill="white"/>
<path opacity="0.3" d="M164.687 162.585C178.72 162.585 190.096 151.192 190.096 137.138C190.096 123.084 178.72 111.691 164.687 111.691C150.654 111.691 139.278 123.084 139.278 137.138C139.278 151.192 150.654 162.585 164.687 162.585Z" fill="#FF8563"/>
<path opacity="0.3" d="M164.687 154.103C174.043 154.103 181.627 146.507 181.627 137.138C181.627 127.769 174.043 120.173 164.687 120.173C155.332 120.173 147.748 127.769 147.748 137.138C147.748 146.507 155.332 154.103 164.687 154.103Z" fill="#FF8563"/>
<path d="M164.687 148.919C171.184 148.919 176.451 143.645 176.451 137.138C176.451 130.632 171.184 125.357 164.687 125.357C158.19 125.357 152.924 130.632 152.924 137.138C152.924 143.645 158.19 148.919 164.687 148.919Z" fill="#FF8563"/>
<path opacity="0.3" d="M378.487 99.5195C392.519 99.5195 403.895 88.1264 403.895 74.0724C403.895 60.0183 392.519 48.6253 378.487 48.6253C364.454 48.6253 353.078 60.0183 353.078 74.0724C353.078 88.1264 364.454 99.5195 378.487 99.5195Z" fill="#FF8563"/>
<path opacity="0.3" d="M378.486 91.0371C387.841 91.0371 395.425 83.4418 395.425 74.0724C395.425 64.703 387.841 57.1077 378.486 57.1077C369.131 57.1077 361.547 64.703 361.547 74.0724C361.547 83.4418 369.131 91.0371 378.486 91.0371Z" fill="#FF8563"/>
<path d="M378.487 85.8535C384.983 85.8535 390.25 80.5789 390.25 74.0724C390.25 67.5659 384.983 62.2913 378.487 62.2913C371.99 62.2913 366.723 67.5659 366.723 74.0724C366.723 80.5789 371.99 85.8535 378.487 85.8535Z" fill="#FF8563"/>
<path opacity="0.3" d="M383.015 276.155C397.048 276.155 408.424 264.762 408.424 250.708C408.424 236.654 397.048 225.26 383.015 225.26C368.982 225.26 357.606 236.654 357.606 250.708C357.606 264.762 368.982 276.155 383.015 276.155Z" fill="#FF8563"/>
<path opacity="0.3" d="M383.015 267.672C392.371 267.672 399.955 260.077 399.955 250.708C399.955 241.338 392.371 233.743 383.015 233.743C373.66 233.743 366.076 241.338 366.076 250.708C366.076 260.077 373.66 267.672 383.015 267.672Z" fill="#FF8563"/>
<path d="M383.015 262.489C389.512 262.489 394.779 257.214 394.779 250.708C394.779 244.201 389.512 238.927 383.015 238.927C376.519 238.927 371.252 244.201 371.252 250.708C371.252 257.214 376.519 262.489 383.015 262.489Z" fill="#FF8563"/>
<path d="M42.3116 51.5357L52.7695 51.9418L53.2909 38.4757L42.833 38.0696L42.3116 51.5357Z" fill="#FF8563"/>
<path d="M90.0087 85.2309C90.0087 85.2309 104.491 78.301 104.26 84.2859C104.028 90.2709 89.6611 94.2084 89.6611 94.2084L90.0087 85.2309Z" fill="#FFB9B9"/>
<path d="M82.0627 135.871C82.0627 135.871 88.8954 152.62 91.4199 164.706C93.9444 176.792 97.7891 193.424 92.8437 205.22C87.8982 217.016 73.8379 251.684 73.693 255.425C73.5482 259.165 74.8974 262.964 71.9094 262.848C68.9214 262.732 52.6613 257.605 52.0012 255.332C51.3411 253.058 57.5488 247.305 57.5488 247.305L72.8776 199.2L56.8844 167.86L45.3485 214.614L43.0891 272.967C43.0891 272.967 32 269.54 30.3902 272.474C30.3902 272.474 25.4219 265.538 24.7908 262.517C24.1597 259.495 27.1371 201.919 27.1371 201.919C27.1371 201.919 16.9583 136.339 25.1753 136.659C33.3922 136.978 65.5771 117.249 82.0627 135.871Z" fill="#2F2E41"/>
<path d="M72.0256 259.856C72.0256 259.856 79.6052 276.633 80.3233 277.41C81.0413 278.188 85.9806 285.872 82.2456 285.727C78.5106 285.582 69.6915 281.493 63.2003 275.247C56.7091 269.001 48.1507 258.179 48.9267 257.46C49.7026 256.741 55.0185 254.7 55.0185 254.7L72.0256 259.856Z" fill="#2F2E41"/>
<path d="M41.7401 269.169C41.7401 269.169 42.1975 276.679 43.5756 279.729C44.9537 282.78 44.7799 287.269 41.0449 287.124C37.31 286.979 27.657 285.105 27.657 285.105C27.657 285.105 27.0838 280.587 27.8597 279.868C28.6357 279.149 31.9423 271.036 30.5352 268.734C29.1281 266.431 41.7401 269.169 41.7401 269.169Z" fill="#2F2E41"/>
<path d="M36.2144 25.45C36.2144 25.45 28.252 37.8779 25.1482 40.7543C22.0443 43.6308 30.7765 49.9638 30.7765 49.9638L46.4055 52.0693C46.4055 52.0693 46.2089 37.826 47.0138 36.3588C47.8187 34.8916 36.2144 25.45 36.2144 25.45Z" fill="#FFB9B9"/>
<path d="M49.7988 41.7117C49.7988 41.7117 46.5791 47.5806 43.5911 47.4645C40.6032 47.3485 25.148 40.7543 24.4879 38.481C23.8278 36.2076 19.3687 54.7655 19.3687 54.7655L57.1863 121.418L66.4109 115.033L61.9412 75.8992L58.2703 54.7778L49.7988 41.7117Z" fill="#FF8563"/>
<path d="M23.0933 101.363C24.6018 104.524 25.544 107.82 25.4134 111.194C25.4076 111.343 25.4018 111.493 25.3885 111.642C25.0306 118.566 22.4837 126.574 21.57 132.398C20.9069 136.575 21.0956 139.624 23.5366 140.341C29.4547 142.069 22.6738 143.305 45.5699 150.937C68.466 158.569 72.4617 151.981 72.5196 150.485C72.5776 148.989 69.2771 137.622 70.0531 136.903C70.829 136.184 80.9104 146.316 83.9563 144.935C87.0022 143.555 84.3039 135.958 84.3039 135.958C84.3039 135.958 77.4423 119.957 77.5871 116.217C77.7319 112.476 67.1933 94.8343 67.1933 94.8343L60.0253 48.1028C60.0253 48.1028 57.269 42.0018 53.563 41.1086C49.857 40.2154 46.7821 42.3437 46.7821 42.3437L52.9837 56.071L59.5267 80.3009L58.4321 89.2493C58.4321 89.2493 50.8235 73.2197 45.8263 67.0317C40.829 60.8437 30.1745 46.1942 30.1745 46.1942C30.1745 46.1942 27.687 37.7885 29.5648 35.2765C31.4429 32.7571 21.732 32.38 17.5915 42.7086C15.397 48.1827 11.8341 56.346 9.60214 63.9466C7.61328 70.6799 6.6738 76.9745 8.64419 80.5725C11.6557 86.069 19.2312 93.2938 23.0933 101.363Z" fill="#575A89"/>
<path opacity="0.1" d="M8.64419 80.5725C11.6557 86.0691 19.2312 93.2938 23.0933 101.363C24.102 97.7236 25.3326 93.9578 25.3326 93.9578C25.3326 93.9578 30.0525 68.6668 16.0913 62.1307C13.778 61.9067 11.4644 62.5541 9.60215 63.9466C7.61327 70.6799 6.6738 76.9746 8.64419 80.5725Z" fill="black"/>
<path d="M64.0663 78.9787L75.9024 82.4354L92.3363 83.0736L94.0269 97.3749L67.0192 99.323C67.0192 99.323 60.2734 80.3299 64.0663 78.9787Z" fill="#575A89"/>
<path d="M44.7662 127.064C44.7662 127.064 60.6005 129.695 56.9865 134.467C53.3725 139.239 39.3452 134.222 39.3452 134.222L44.7662 127.064Z" fill="#FFB9B9"/>
<path opacity="0.1" d="M25.3884 111.642C25.0305 118.566 22.4836 126.574 21.5698 132.398C26.614 137.179 31.4108 141.396 33.2185 141.466C36.9535 141.611 42.9584 141.095 45.1704 141.931C47.3824 142.766 48.6798 128.58 48.6798 128.58C48.6798 128.58 47.3596 124.034 41.4705 121.557C37.4955 119.882 29.8761 115.338 25.3884 111.642Z" fill="black"/>
<path d="M16.265 57.6419C16.265 57.6419 3.62407 55.6525 4.30698 76.6579C4.98989 97.6632 2.9745 111.071 8.05862 115.015C13.1427 118.959 29.6574 136.833 33.3923 136.978C37.1273 137.123 43.1323 136.607 45.3443 137.442C47.5563 138.277 48.8536 124.092 48.8536 124.092C48.8536 124.092 47.5335 119.545 41.6444 117.069C35.7554 114.592 21.8811 105.812 21.997 102.819C22.1128 99.8267 25.5063 89.4691 25.5063 89.4691C25.5063 89.4691 30.2262 64.1781 16.265 57.6419Z" fill="#575A89"/>
<path d="M47.3613 43.8524C56.4443 43.8524 63.8075 36.4781 63.8075 27.3814C63.8075 18.2847 56.4443 10.9104 47.3613 10.9104C38.2783 10.9104 30.915 18.2847 30.915 27.3814C30.915 36.4781 38.2783 43.8524 47.3613 43.8524Z" fill="#FFB9B9"/>
<path d="M58.435 3.77369C58.8316 4.11598 59.3067 4.35472 59.8178 4.46866C60.0744 4.51447 60.3386 4.45677 60.5529 4.30813C60.7671 4.1595 60.9139 3.93202 60.9613 3.67535C61.3376 4.45686 61.7621 5.2898 62.5304 5.69081C63.2986 6.09182 64.4865 5.75556 64.5973 4.89505C64.7094 5.54841 64.998 6.15856 65.4318 6.65934C65.9085 7.11448 66.7728 7.22936 67.189 6.71816C66.8525 8.55952 67.0602 10.4532 66.9545 12.3221C66.8489 14.191 66.3513 16.1724 64.9414 17.4014C62.8852 19.1936 59.7932 18.7513 57.0885 18.4117C56.6795 18.3258 56.2551 18.349 55.8578 18.4792C54.8451 18.9113 54.8911 20.3232 54.8774 21.4256C54.7948 23.3598 54.0304 25.2022 52.72 26.6255C51.4095 28.0488 49.6379 28.9609 47.7195 29.1999C46.646 29.3659 45.5505 29.0981 44.674 28.4555C43.9061 27.8036 43.5138 26.7411 42.6338 26.2514C41.2024 25.4548 39.4664 26.6165 38.4199 27.8779C37.3734 29.1393 36.3419 30.6909 34.7207 30.9218C32.5765 31.2272 30.9434 29.0387 30.1422 27.0236C29.0367 24.1993 28.5071 21.1819 28.5846 18.1493C28.662 15.1167 29.3449 12.1303 30.5931 9.36627C35.0702 -0.407816 50.3641 -1.95378 58.435 3.77369Z" fill="#2F2E41"/>
<path d="M453.229 265.672C459.022 275.565 470.703 279.481 470.703 279.481C470.703 279.481 472.994 267.359 467.202 257.467C461.41 247.574 449.728 243.657 449.728 243.657C449.728 243.657 447.437 255.78 453.229 265.672Z" fill="#F2F2F2"/>
<path d="M456.844 262.22C466.861 267.776 471.057 279.375 471.057 279.375C471.057 279.375 459.013 281.967 448.996 276.411C438.979 270.854 434.783 259.255 434.783 259.255C434.783 259.255 446.827 256.663 456.844 262.22Z" fill="#FF8563"/>
</g>
<defs>
<clipPath id="clip0_2089_4">
<rect width="517" height="298" fill="white"/>
</clipPath>
</defs>
</svg>
