<svg width="442" height="362" viewBox="0 0 442 362" fill="none" xmlns="http://www.w3.org/2000/svg">
<g clip-path="url(#clip0_2211_205)">
<path d="M359.125 36.3828C361.943 24.9122 359.264 11.5347 350.16 3.98975C349.982 16.8319 345.259 29.1973 336.826 38.8982C333.56 42.6277 329.538 46.4363 329.38 51.387C329.281 54.4674 330.788 57.4262 332.864 59.7076C334.94 61.989 337.559 63.6964 340.148 65.3777L340.528 66.047C348.858 57.6598 356.307 47.8534 359.125 36.3828Z" fill="#F0F0F0"/>
<path d="M349.977 4.1573C353.469 13.2908 353.988 23.29 351.461 32.7347C350.953 34.7776 350.126 36.7278 349.01 38.5136C347.866 40.2181 346.286 41.5858 344.434 42.4746C342.723 43.338 340.873 44.0235 339.403 45.2869C338.66 45.9447 338.065 46.7519 337.656 47.6555C337.247 48.5591 337.035 49.5387 337.032 50.53C336.961 53 337.784 55.3481 338.668 57.6165C339.65 60.1351 340.709 62.7357 340.482 65.4932C340.455 65.8273 340.976 65.8503 341.003 65.5167C341.398 60.7191 338.133 56.6667 337.616 52.0132C337.374 49.8419 337.787 47.5847 339.395 46.0015C340.802 44.6171 342.709 43.9087 344.448 43.0494C346.268 42.2087 347.854 40.9361 349.067 39.3427C350.271 37.6194 351.172 35.7043 351.732 33.6792C353.066 29.1403 353.676 24.4203 353.54 19.6922C353.415 14.2951 352.367 8.9592 350.439 3.91517C350.32 3.60302 349.859 3.84719 349.977 4.1573Z" fill="white"/>
<path d="M352.454 29.7413C354.099 29.9493 355.765 29.5668 357.154 28.6622C358.543 27.7575 359.564 26.3897 360.035 24.8028C360.13 24.4814 359.634 24.32 359.539 24.6419C359.103 26.1203 358.151 27.3944 356.857 28.2342C355.562 29.0739 354.009 29.424 352.478 29.2213C352.145 29.1776 352.123 29.6979 352.454 29.7413Z" fill="white"/>
<path d="M345.359 42.1507C343.258 39.4952 342.237 36.1469 342.5 32.7736C342.526 32.4394 342.005 32.4162 341.979 32.75C341.712 36.2609 342.782 39.7431 344.974 42.5017C345.183 42.7645 345.567 42.4121 345.359 42.1507Z" fill="white"/>
<path d="M352.788 14.5839C352.134 14.6358 351.478 14.525 350.878 14.2613C350.278 13.9976 349.754 13.5893 349.351 13.0732C349.145 12.8078 348.762 13.1606 348.966 13.4242C349.413 13.9924 349.994 14.4426 350.656 14.7354C351.318 15.0282 352.042 15.1547 352.764 15.1039C352.832 15.1048 352.899 15.0797 352.949 15.0336C353 14.9875 353.031 14.9239 353.036 14.8557C353.039 14.7868 353.014 14.7196 352.968 14.6688C352.921 14.6179 352.857 14.5874 352.788 14.5839Z" fill="white"/>
<path d="M310.793 11.4155C310.917 11.5848 311.04 11.7541 311.163 11.9276C312.814 14.2125 314.277 16.6274 315.537 19.1487C315.637 19.3421 315.736 19.5396 315.831 19.7354C318.8 25.842 320.609 32.4458 321.163 39.2112C321.381 41.9035 321.394 44.6084 321.201 47.3026C320.934 51.0234 320.348 55.0365 321.3 58.5252C321.395 58.8903 321.513 59.2492 321.653 59.5998L339.68 66.4579C339.729 66.453 339.776 66.4522 339.825 66.4473L340.532 66.754C340.552 66.6158 340.569 66.4719 340.589 66.3337C340.601 66.2535 340.609 66.1719 340.62 66.0917C340.627 66.0378 340.633 65.9838 340.642 65.9355C340.645 65.9175 340.647 65.8995 340.647 65.8857C340.656 65.8374 340.66 65.7916 340.667 65.7474C340.767 64.9438 340.861 64.1381 340.95 63.3302C340.951 63.3261 340.951 63.3261 340.949 63.3205C341.684 57.1715 341.685 50.9571 340.953 44.8078C340.929 44.6246 340.906 44.4373 340.874 44.251C340.495 41.508 339.892 38.8006 339.071 36.1557C338.617 34.7088 338.09 33.2859 337.491 31.8922C335.938 28.2943 333.828 24.9626 331.238 22.0192C326.074 16.1522 319.087 11.9991 311.382 11.4516C311.185 11.4377 310.992 11.4253 310.793 11.4155Z" fill="#F0F0F0"/>
<path d="M310.746 11.6592C319.043 16.8538 325.49 24.5256 329.17 33.585C329.997 35.5213 330.512 37.5755 330.698 39.6721C330.813 41.7203 330.377 43.7619 329.434 45.5847C328.589 47.3019 327.526 48.9608 327.114 50.8532C326.917 51.8249 326.929 52.8272 327.148 53.7942C327.366 54.7612 327.788 55.671 328.383 56.4642C329.817 58.479 331.89 59.8596 333.964 61.1395C336.267 62.5605 338.682 64.0001 340.164 66.3382C340.344 66.6215 340.774 66.3268 340.595 66.0439C338.016 61.9761 332.965 60.7022 329.744 57.2978C328.241 55.7093 327.209 53.6591 327.538 51.4285C327.826 49.4779 328.922 47.7663 329.792 46.0349C330.738 44.2702 331.237 42.3011 331.244 40.2997C331.166 38.2004 330.73 36.1297 329.956 34.1764C328.282 29.751 325.922 25.6157 322.962 21.922C319.607 17.6877 315.551 14.0575 310.969 11.1884C310.685 11.0109 310.465 11.4829 310.746 11.6592Z" fill="white"/>
<path d="M328.157 30.5984C329.596 29.7759 330.695 28.4695 331.258 26.9127C331.821 25.3559 331.812 23.65 331.231 22.0996C331.112 21.7863 330.619 21.9555 330.738 22.2692C331.281 23.7119 331.29 25.301 330.763 26.7496C330.235 28.1983 329.206 29.411 327.862 30.1691C327.57 30.3341 327.866 30.7626 328.157 30.5984Z" fill="white"/>
<path d="M329.977 44.7704C326.698 43.9125 323.863 41.8525 322.038 39.0011C321.858 38.7185 321.428 39.0131 321.608 39.2954C323.513 42.259 326.467 44.3968 329.882 45.2821C330.207 45.3662 330.301 44.8541 329.977 44.7704Z" fill="white"/>
<path d="M319.28 18.2958C318.789 18.7299 318.199 19.0356 317.561 19.1855C316.923 19.3354 316.257 19.3248 315.625 19.1546C315.3 19.0664 315.207 19.5787 315.529 19.6663C316.229 19.8511 316.964 19.8619 317.669 19.6978C318.374 19.5338 319.028 19.1998 319.575 18.7252C319.63 18.6847 319.668 18.6248 319.68 18.5576C319.693 18.4904 319.679 18.421 319.642 18.3634C319.603 18.3067 319.543 18.2678 319.475 18.2552C319.407 18.2425 319.337 18.2571 319.28 18.2958Z" fill="white"/>
<path d="M286.957 270.521C226.52 270.521 177.351 221.446 177.351 161.125C177.351 100.803 226.52 51.7285 286.957 51.7285C293.347 51.7277 299.724 52.2793 306.019 53.377C306.097 53.3906 306.172 53.4194 306.239 53.4619C306.307 53.5044 306.365 53.5598 306.411 53.6248C306.457 53.6898 306.489 53.7632 306.506 53.8408C306.524 53.9183 306.526 53.9986 306.512 54.0769C306.498 54.1552 306.469 54.23 306.426 54.2971C306.384 54.3641 306.328 54.4221 306.263 54.4677C306.197 54.5133 306.124 54.5456 306.046 54.5627C305.968 54.5798 305.888 54.5815 305.81 54.5675C299.584 53.4821 293.277 52.9366 286.957 52.9373C227.188 52.9373 178.562 101.47 178.562 161.125C178.562 220.779 227.188 269.312 286.957 269.312C346.727 269.312 395.353 220.779 395.353 161.125C395.379 134.161 385.292 108.165 367.076 88.253C366.969 88.1344 366.913 87.9783 366.921 87.8187C366.929 87.6592 366.999 87.5092 367.118 87.4016C367.236 87.294 367.392 87.2375 367.552 87.2444C367.712 87.2513 367.862 87.3211 367.971 87.4385C386.39 107.573 396.591 133.86 396.564 161.125C396.564 221.446 347.394 270.521 286.957 270.521Z" fill="#E4E4E4"/>
<path d="M335.286 89.2475C347.262 89.2475 356.972 79.5571 356.972 67.6034C356.972 55.6496 347.262 45.9592 335.286 45.9592C323.309 45.9592 313.6 55.6496 313.6 67.6034C313.6 79.5571 323.309 89.2475 335.286 89.2475Z" fill="#FF8563"/>
<path d="M332.327 78.8682C331.953 78.8682 331.583 78.7811 331.248 78.6139C330.914 78.4467 330.622 78.204 330.398 77.9049L324.481 70.0317C324.291 69.7787 324.153 69.4909 324.074 69.1846C323.996 68.8783 323.978 68.5596 324.023 68.2466C324.068 67.9336 324.174 67.6325 324.336 67.3605C324.497 67.0884 324.711 66.8508 324.964 66.6611C325.217 66.4714 325.506 66.3334 325.813 66.2549C326.12 66.1765 326.439 66.1591 326.752 66.2038C327.066 66.2486 327.368 66.3545 327.64 66.5156C327.913 66.6767 328.151 66.8898 328.341 67.1427L332.212 72.2932L342.153 57.4104C342.508 56.8813 343.06 56.5145 343.686 56.3905C344.312 56.2665 344.962 56.3954 345.494 56.7489C346.025 57.1023 346.394 57.6516 346.52 58.2763C346.647 58.901 346.519 59.5501 346.167 60.0814L334.334 77.796C334.12 78.1163 333.833 78.3808 333.495 78.5673C333.157 78.7537 332.78 78.8566 332.394 78.8674C332.372 78.8678 332.35 78.8682 332.327 78.8682Z" fill="white"/>
<path d="M284.138 144.148L250.697 51.2933L251.545 50.989L245.394 33.9106L244.546 34.2152L234.279 5.70605C233.895 4.64126 233.305 3.66228 232.543 2.82501C231.78 1.98774 230.86 1.30858 229.834 0.826291C228.809 0.344005 227.698 0.0680421 226.566 0.0141672C225.434 -0.0397076 224.302 0.129558 223.235 0.512296L162.78 22.2013C161.713 22.584 160.732 23.1727 159.894 23.9337C159.055 24.6948 158.374 25.6133 157.891 26.6369C157.408 27.6604 157.131 28.7689 157.077 29.8991C157.023 31.0293 157.193 32.1591 157.576 33.2239L164.735 53.1022L163.395 53.6172L167.965 65.4616L169.038 65.0493L169.987 67.684L168.845 68.1228L173.415 79.9672L174.29 79.6312L207.436 171.665C207.817 172.731 208.406 173.712 209.168 174.55C209.93 175.389 210.851 176.069 211.877 176.551C212.903 177.034 214.014 177.309 215.148 177.362C216.281 177.415 217.413 177.244 218.48 176.859L278.934 155.17C281.087 154.395 282.844 152.799 283.819 150.733C284.795 148.666 284.909 146.298 284.138 144.148Z" fill="#3F3D56"/>
<path d="M215.3 173.799C214.449 173.797 213.619 173.534 212.923 173.045C212.227 172.555 211.698 171.864 211.41 171.065L161.024 31.1621C160.654 30.1316 160.708 28.9963 161.175 28.0058C161.643 27.0154 162.486 26.2508 163.518 25.8804L176.381 21.2656L176.362 21.7148C176.329 22.4945 176.488 23.2704 176.826 23.974C177.165 24.6776 177.671 25.2875 178.301 25.7498C178.931 26.2121 179.665 26.5126 180.439 26.625C181.213 26.7374 182.002 26.6581 182.738 26.3942L211.284 16.1528C211.974 15.8376 212.579 15.3651 213.051 14.7733C213.523 14.1815 213.849 13.4871 214.002 12.7462C214.154 12.0177 214.131 11.2638 213.935 10.5458C213.739 9.82788 213.376 9.16634 212.875 8.61517L212.574 8.28079L225.86 3.51379C226.893 3.14493 228.03 3.19981 229.022 3.6664C230.014 4.13299 230.78 4.9732 231.153 6.00279L279.225 139.482C280.206 142.216 280.06 145.227 278.82 147.854C277.579 150.482 275.345 152.511 272.608 153.496L216.702 173.554C216.252 173.716 215.778 173.799 215.3 173.799Z" fill="white"/>
<path d="M210.375 74.5689C219.404 74.5689 226.725 67.2628 226.725 58.2502C226.725 49.2376 219.404 41.9314 210.375 41.9314C201.345 41.9314 194.024 49.2376 194.024 58.2502C194.024 67.2628 201.345 74.5689 210.375 74.5689Z" fill="#FF8563"/>
<path d="M250.89 81.9816L194.269 102.295C194.092 102.359 193.904 102.388 193.716 102.379C193.528 102.371 193.344 102.325 193.174 102.245C193.003 102.165 192.851 102.053 192.724 101.914C192.597 101.775 192.499 101.613 192.436 101.436C192.372 101.259 192.344 101.072 192.353 100.884C192.362 100.697 192.408 100.513 192.489 100.343C192.569 100.174 192.682 100.021 192.822 99.8953C192.961 99.7693 193.124 99.672 193.301 99.6089L249.922 79.2951C250.279 79.1681 250.671 79.1876 251.014 79.3491C251.356 79.5106 251.62 79.8011 251.748 80.1567C251.876 80.5124 251.858 80.9042 251.697 81.2463C251.536 81.5884 251.246 81.8528 250.89 81.9816Z" fill="#E6E6E6"/>
<path d="M234.075 94.8614L215.451 101.543C215.274 101.607 215.086 101.635 214.898 101.627C214.711 101.618 214.526 101.573 214.356 101.493C214.186 101.413 214.033 101.3 213.907 101.162C213.78 101.023 213.682 100.86 213.619 100.684C213.555 100.507 213.527 100.32 213.536 100.132C213.545 99.9447 213.591 99.7608 213.671 99.5911C213.752 99.4214 213.865 99.2692 214.004 99.1431C214.143 99.0171 214.306 98.9197 214.483 98.8565L233.108 92.1747C233.464 92.0467 233.858 92.0654 234.201 92.2267C234.544 92.3881 234.809 92.6789 234.937 93.0352C235.066 93.3915 235.047 93.7841 234.885 94.1265C234.723 94.469 234.432 94.7334 234.075 94.8614Z" fill="#E6E6E6"/>
<path d="M238.505 107.161L219.881 113.843C219.704 113.907 219.517 113.935 219.329 113.926C219.141 113.917 218.957 113.871 218.787 113.791C218.618 113.711 218.465 113.599 218.339 113.46C218.212 113.321 218.115 113.159 218.051 112.983C217.988 112.806 217.959 112.619 217.968 112.432C217.977 112.245 218.023 112.061 218.103 111.891C218.183 111.722 218.296 111.57 218.435 111.444C218.574 111.318 218.736 111.22 218.913 111.157L237.538 104.475C237.894 104.347 238.288 104.365 238.631 104.527C238.974 104.688 239.239 104.979 239.367 105.335C239.496 105.692 239.477 106.084 239.315 106.427C239.153 106.769 238.862 107.033 238.505 107.161Z" fill="#E6E6E6"/>
<path d="M240.774 113.461L222.15 120.143C221.973 120.207 221.785 120.236 221.597 120.227C221.409 120.218 221.225 120.173 221.055 120.093C220.884 120.013 220.732 119.901 220.605 119.762C220.478 119.623 220.38 119.461 220.317 119.284C220.253 119.107 220.225 118.92 220.234 118.732C220.243 118.545 220.289 118.361 220.37 118.191C220.45 118.021 220.563 117.869 220.703 117.743C220.842 117.617 221.005 117.52 221.182 117.456L239.807 110.775C239.983 110.711 240.171 110.682 240.359 110.691C240.547 110.7 240.731 110.745 240.902 110.825C241.072 110.905 241.225 111.017 241.351 111.156C241.478 111.295 241.576 111.457 241.639 111.634C241.703 111.811 241.731 111.998 241.722 112.186C241.713 112.373 241.667 112.557 241.586 112.727C241.506 112.897 241.393 113.049 241.254 113.175C241.114 113.301 240.951 113.398 240.774 113.461Z" fill="#E6E6E6"/>
<path d="M246.704 97.1778L207.189 111.354C207.013 111.418 206.825 111.447 206.637 111.438C206.449 111.429 206.265 111.384 206.095 111.304C205.924 111.224 205.772 111.112 205.645 110.973C205.518 110.834 205.42 110.672 205.357 110.495C205.293 110.318 205.265 110.131 205.274 109.943C205.283 109.756 205.329 109.572 205.41 109.402C205.49 109.233 205.603 109.08 205.742 108.954C205.882 108.828 206.045 108.731 206.222 108.668L245.736 94.4913C245.913 94.4274 246.101 94.3989 246.289 94.4075C246.477 94.4161 246.661 94.4617 246.831 94.5415C247.002 94.6213 247.154 94.7338 247.281 94.8727C247.408 95.0115 247.506 95.1739 247.569 95.3506C247.633 95.5273 247.661 95.7147 247.652 95.9022C247.643 96.0897 247.597 96.2736 247.516 96.4433C247.436 96.6131 247.323 96.7653 247.183 96.8913C247.044 97.0174 246.881 97.1147 246.704 97.1778Z" fill="#E6E6E6"/>
<path d="M238.745 128.755L231.982 131.181C231.376 131.398 230.707 131.366 230.124 131.091C229.541 130.817 229.091 130.323 228.873 129.717C228.655 129.112 228.687 128.444 228.961 127.862C229.236 127.28 229.731 126.83 230.337 126.612L237.1 124.186C237.706 123.969 238.375 124.001 238.958 124.276C239.541 124.55 239.991 125.044 240.209 125.65C240.427 126.255 240.396 126.923 240.121 127.505C239.846 128.087 239.351 128.537 238.745 128.755Z" fill="#FF8563"/>
<path d="M185.455 21.7181C185.974 21.7181 186.396 21.2978 186.396 20.7794C186.396 20.2611 185.974 19.8408 185.455 19.8408C184.936 19.8408 184.515 20.2611 184.515 20.7794C184.515 21.2978 184.936 21.7181 185.455 21.7181Z" fill="white"/>
<path d="M77.3028 73.5697C87.8429 61.1865 104.945 53.3825 120.711 57.4285C106.511 67.9801 96.5078 83.205 92.4715 100.409C90.9389 107.05 89.9272 114.595 84.5252 118.763C81.1641 121.356 76.6446 122.065 72.4227 121.594C68.2006 121.124 64.1821 119.586 60.2176 118.062L59.1636 118.179C61.815 102.147 66.7627 85.9528 77.3028 73.5697Z" fill="#F0F0F0"/>
<path d="M120.672 57.767C107.655 61.246 96.0683 68.7299 87.5562 79.1558C85.6839 81.3678 84.1725 83.8606 83.0779 86.5423C82.0961 89.189 81.8424 92.0498 82.343 94.8275C82.7577 97.4268 83.4835 100.038 83.2578 102.692C83.1222 104.049 82.7006 105.363 82.0207 106.546C81.3409 107.729 80.4181 108.755 79.313 109.557C76.6115 111.628 73.3257 112.606 70.0792 113.451C66.4746 114.389 62.7156 115.307 59.8185 117.782C59.4675 118.082 59.0217 117.521 59.3722 117.222C64.4125 112.914 71.5709 113.28 77.186 110.104C79.806 108.622 81.9946 106.343 82.466 103.277C82.8783 100.596 82.1322 97.9031 81.6895 95.2749C81.1613 92.5723 81.3042 89.7817 82.1056 87.1469C83.0599 84.4183 84.4725 81.8716 86.2829 79.6159C90.2775 74.4728 95.0576 69.9886 100.448 66.3275C106.577 62.115 113.382 58.98 120.57 57.058C121.015 56.9393 121.114 57.649 120.672 57.767Z" fill="white"/>
<path d="M90.0991 75.6379C88.5404 73.975 87.6247 71.8133 87.5154 69.5387C87.4062 67.2642 88.1106 65.025 89.5028 63.2209C89.7858 62.8569 90.3659 63.2786 90.0826 63.6432C88.783 65.3207 88.1271 67.4066 88.2331 69.5245C88.3392 71.6423 89.2002 73.6526 90.6609 75.1924C90.9779 75.5274 90.4143 75.971 90.0991 75.6379Z" fill="white"/>
<path d="M81.9586 93.5373C86.6183 93.7338 91.1811 92.1701 94.737 89.158C95.0891 88.8593 95.535 89.4204 95.1834 89.7187C91.4771 92.8463 86.7256 94.4639 81.877 94.2488C81.4148 94.2279 81.499 93.5166 81.9586 93.5373Z" fill="white"/>
<path d="M106.76 63.0467C107.229 63.8155 107.882 64.4561 108.66 64.9109C109.438 65.3657 110.317 65.6205 111.218 65.6524C111.68 65.6674 111.596 66.3788 111.136 66.3639C110.141 66.3241 109.17 66.0415 108.31 65.5409C107.449 65.0403 106.724 64.3369 106.198 63.4922C106.142 63.4167 106.117 63.3227 106.127 63.2293C106.138 63.1358 106.184 63.0499 106.256 62.9891C106.331 62.9305 106.425 62.9037 106.52 62.9144C106.614 62.9252 106.701 62.9728 106.76 63.0467Z" fill="white"/>
<path d="M144.156 107.218C143.867 107.216 143.578 107.215 143.286 107.219C139.402 107.224 135.526 107.543 131.694 108.174C131.397 108.218 131.097 108.268 130.802 108.32C121.587 109.939 112.753 113.251 104.749 118.089C101.566 120.017 98.535 122.184 95.6814 124.57C91.7406 127.867 87.7306 131.755 83.0661 133.508C82.5816 133.696 82.0857 133.854 81.5816 133.981L59.3876 119.453C59.3538 119.395 59.3164 119.341 59.2823 119.283L58.3696 118.743C58.5082 118.61 58.6548 118.474 58.7933 118.341C58.8734 118.263 58.9584 118.189 59.0384 118.111C59.0934 118.06 59.1486 118.01 59.1952 117.961C59.2135 117.944 59.2319 117.927 59.2468 117.915C59.2935 117.866 59.3421 117.826 59.3854 117.782C60.2026 117.023 61.0267 116.268 61.8574 115.518C61.8608 115.513 61.8608 115.513 61.869 115.512C68.2137 109.813 75.0908 104.593 82.5431 100.581C82.7673 100.461 82.9947 100.335 83.2291 100.221C86.5982 98.4311 90.1084 96.9191 93.7243 95.7C95.7065 95.0389 97.7209 94.4783 99.7599 94.0204C105.03 92.8475 110.453 92.5093 115.829 93.0182C126.546 94.0344 136.817 98.46 143.641 106.591C143.815 106.799 143.985 107.004 144.156 107.218Z" fill="#F0F0F0"/>
<path d="M143.921 107.466C131.43 102.422 117.664 101.435 104.578 104.644C101.749 105.285 99.0385 106.368 96.5468 107.851C94.1663 109.374 92.238 111.506 90.9622 114.025C89.7253 116.349 88.7298 118.87 86.9483 120.854C86.0213 121.856 84.8926 122.651 83.6361 123.187C82.3796 123.723 81.0237 123.988 79.6574 123.965C76.2515 123.995 73.038 122.801 69.9361 121.525C66.4921 120.108 62.9372 118.582 59.1307 118.817C58.6695 118.846 58.6521 118.13 59.1126 118.102C65.7352 117.691 71.2305 122.284 77.6294 123.123C80.6152 123.514 83.7373 123.01 85.9633 120.845C87.9098 118.952 88.9385 116.354 90.1705 113.989C91.379 111.514 93.1764 109.372 95.4057 107.749C97.8137 106.144 100.478 104.96 103.284 104.247C109.576 102.541 116.097 101.832 122.61 102.148C130.044 102.468 137.369 104.054 144.268 106.839C144.695 107.011 144.345 107.638 143.921 107.466Z" fill="white"/>
<path d="M108.731 103.363C108.489 101.099 109.062 98.8227 110.347 96.941C111.632 95.0593 113.545 93.6946 115.745 93.0908C116.19 92.9702 116.399 93.6555 115.953 93.7764C113.904 94.3349 112.122 95.6062 110.929 97.3609C109.736 99.1156 109.211 101.238 109.448 103.345C109.499 103.803 108.782 103.819 108.731 103.363Z" fill="white"/>
<path d="M91.4338 112.764C95.0358 115.721 99.6222 117.214 104.278 116.946C104.74 116.919 104.757 117.635 104.297 117.662C99.4507 117.932 94.681 116.368 90.9394 113.283C90.583 112.988 91.0793 112.471 91.4338 112.764Z" fill="white"/>
<path d="M129.629 103.322C129.54 104.218 129.675 105.121 130.022 105.952C130.369 106.783 130.917 107.515 131.617 108.082C131.977 108.371 131.48 108.888 131.123 108.601C130.352 107.971 129.747 107.162 129.362 106.245C128.977 105.328 128.822 104.331 128.912 103.34C128.913 103.246 128.949 103.156 129.014 103.088C129.079 103.02 129.168 102.979 129.262 102.973C129.357 102.971 129.449 103.007 129.517 103.072C129.586 103.138 129.626 103.227 129.629 103.322Z" fill="white"/>
<path d="M393.627 311.576C405.119 314.388 418.522 311.714 426.082 302.628C413.215 302.45 400.826 297.736 391.106 289.319C387.37 286.06 383.554 282.046 378.593 281.888C375.507 281.789 372.543 283.293 370.257 285.365C367.971 287.437 366.26 290.051 364.576 292.634L363.905 293.014C372.309 301.329 382.134 308.763 393.627 311.576Z" fill="#F0F0F0"/>
<path d="M425.914 302.445C416.763 305.93 406.745 306.448 397.282 303.926C395.235 303.42 393.281 302.594 391.492 301.48C389.784 300.338 388.414 298.761 387.523 296.912C386.658 295.205 385.971 293.359 384.705 291.891C384.046 291.15 383.238 290.555 382.332 290.148C381.427 289.74 380.445 289.528 379.452 289.525C376.977 289.454 374.625 290.275 372.352 291.158C369.829 292.137 367.223 293.195 364.46 292.969C364.125 292.941 364.102 293.461 364.437 293.489C369.243 293.883 373.304 290.624 377.966 290.107C380.142 289.866 382.403 290.278 383.989 291.883C385.376 293.287 386.086 295.191 386.947 296.927C387.789 298.743 389.064 300.326 390.661 301.537C392.388 302.738 394.306 303.638 396.335 304.197C400.883 305.528 405.612 306.137 410.349 306.001C415.757 305.877 421.103 304.83 426.156 302.906C426.469 302.787 426.225 302.327 425.914 302.445Z" fill="white"/>
<path d="M400.281 304.918C400.073 306.56 400.456 308.222 401.362 309.608C402.269 310.994 403.639 312.014 405.229 312.484C405.551 312.578 405.713 312.083 405.39 311.989C403.909 311.554 402.632 310.604 401.791 309.311C400.95 308.019 400.599 306.469 400.802 304.941C400.846 304.609 400.325 304.587 400.281 304.918Z" fill="white"/>
<path d="M387.847 297.836C390.508 295.739 393.863 294.72 397.243 294.982C397.577 295.009 397.601 294.489 397.266 294.462C393.749 294.196 390.26 295.263 387.496 297.451C387.232 297.66 387.586 298.043 387.847 297.836Z" fill="white"/>
<path d="M415.468 305.25C415.415 304.598 415.527 303.943 415.791 303.344C416.055 302.746 416.464 302.222 416.981 301.82C417.247 301.615 416.894 301.232 416.629 301.436C416.06 301.882 415.609 302.461 415.316 303.122C415.022 303.783 414.896 304.506 414.947 305.227C414.946 305.295 414.971 305.361 415.017 305.412C415.063 305.462 415.127 305.493 415.195 305.498C415.264 305.501 415.332 305.477 415.383 305.43C415.433 305.384 415.464 305.319 415.468 305.25Z" fill="white"/>
<path d="M418.642 263.336C418.472 263.46 418.303 263.583 418.129 263.705C415.84 265.354 413.42 266.813 410.894 268.071C410.7 268.171 410.502 268.27 410.306 268.364C404.188 271.328 397.571 273.133 390.793 273.686C388.096 273.904 385.385 273.917 382.686 273.724C378.958 273.458 374.937 272.873 371.442 273.823C371.076 273.918 370.716 274.036 370.365 274.175L363.494 292.168C363.499 292.216 363.5 292.264 363.505 292.313L363.197 293.019C363.336 293.038 363.48 293.056 363.618 293.075C363.699 293.087 363.781 293.095 363.861 293.106C363.915 293.113 363.969 293.119 364.017 293.128C364.035 293.131 364.053 293.133 364.067 293.133C364.116 293.142 364.162 293.146 364.206 293.153C365.011 293.252 365.818 293.346 366.628 293.435C366.632 293.437 366.632 293.437 366.637 293.434C372.798 294.168 379.025 294.169 385.186 293.438C385.369 293.414 385.557 293.392 385.744 293.359C388.492 292.981 391.204 292.379 393.854 291.56C395.304 291.107 396.73 290.58 398.126 289.983C401.731 288.433 405.069 286.327 408.018 283.742C413.896 278.587 418.057 271.614 418.606 263.924C418.62 263.727 418.632 263.534 418.642 263.336Z" fill="#F0F0F0"/>
<path d="M418.398 263.29C413.193 271.571 405.507 278.005 396.43 281.678C394.49 282.503 392.432 283.018 390.331 283.203C388.279 283.318 386.234 282.882 384.407 281.941C382.687 281.098 381.025 280.037 379.129 279.625C378.155 279.429 377.151 279.441 376.182 279.659C375.213 279.878 374.301 280.298 373.507 280.893C371.488 282.323 370.105 284.393 368.822 286.463C367.399 288.762 365.956 291.172 363.614 292.651C363.33 292.83 363.625 293.26 363.909 293.081C367.984 290.507 369.261 285.465 372.672 282.251C374.263 280.751 376.317 279.721 378.552 280.049C380.506 280.337 382.221 281.43 383.956 282.299C385.724 283.243 387.697 283.741 389.702 283.748C391.806 283.67 393.88 283.235 395.837 282.462C400.271 280.792 404.415 278.436 408.115 275.482C412.358 272.133 415.995 268.085 418.87 263.512C419.047 263.229 418.575 263.008 418.398 263.29Z" fill="white"/>
<path d="M399.422 280.667C400.246 282.103 401.555 283.2 403.115 283.762C404.675 284.324 406.384 284.315 407.937 283.735C408.251 283.617 408.082 283.124 407.767 283.243C406.322 283.785 404.73 283.794 403.278 283.268C401.827 282.741 400.612 281.715 399.852 280.373C399.687 280.081 399.258 280.377 399.422 280.667Z" fill="white"/>
<path d="M385.223 282.484C386.083 279.211 388.147 276.382 391.004 274.56C391.287 274.38 390.992 273.951 390.709 274.131C387.739 276.032 385.597 278.98 384.71 282.388C384.626 282.713 385.139 282.807 385.223 282.484Z" fill="white"/>
<path d="M411.748 271.806C411.314 271.317 411.007 270.727 410.857 270.091C410.707 269.454 410.718 268.79 410.888 268.158C410.976 267.834 410.463 267.741 410.375 268.063C410.19 268.761 410.179 269.495 410.344 270.199C410.508 270.903 410.843 271.556 411.318 272.101C411.359 272.156 411.419 272.193 411.486 272.206C411.554 272.218 411.623 272.205 411.681 272.168C411.738 272.129 411.777 272.069 411.789 272.001C411.802 271.933 411.787 271.863 411.748 271.806Z" fill="white"/>
<path d="M439.677 201.326L422.153 230.76L422.819 231.111L416.884 242.34L415.649 241.688L411.749 248.233L412.718 248.789L406.36 259.777L405.257 259.143L348.074 355.194C346.575 357.707 344.137 359.524 341.297 360.246C338.456 360.968 335.445 360.536 332.923 359.044L226.617 295.999C224.099 294.502 222.278 292.069 221.554 289.234C220.831 286.399 221.265 283.393 222.76 280.877L314.363 127.009C315.863 124.495 318.3 122.678 321.141 121.956C323.981 121.235 326.993 121.667 329.514 123.159L435.82 186.204C438.338 187.701 440.158 190.134 440.881 192.969C441.604 195.804 441.171 198.809 439.677 201.326Z" fill="#3F3D56"/>
<path d="M336.712 353.104L230.032 289.838C229.256 289.376 228.695 288.627 228.472 287.753C228.249 286.879 228.382 285.952 228.843 285.177L321.054 130.285C321.516 129.511 322.268 128.951 323.143 128.728C324.019 128.506 324.947 128.639 325.724 129.099L432.405 192.365C433.181 192.826 433.742 193.576 433.965 194.45C434.188 195.324 434.054 196.251 433.593 197.026L341.383 351.918C340.92 352.692 340.169 353.252 339.293 353.475C338.418 353.697 337.49 353.564 336.712 353.104Z" fill="white"/>
<path d="M380.534 158.283C381.053 158.283 381.474 157.863 381.474 157.345C381.474 156.826 381.053 156.406 380.534 156.406C380.014 156.406 379.593 156.826 379.593 157.345C379.593 157.863 380.014 158.283 380.534 158.283Z" fill="white"/>
<path d="M374.713 269.238L285.662 216.427C285.383 216.262 285.139 216.045 284.944 215.786C284.749 215.528 284.607 215.233 284.526 214.92C284.446 214.607 284.428 214.28 284.474 213.96C284.52 213.64 284.629 213.332 284.795 213.054C284.96 212.776 285.179 212.533 285.439 212.339C285.699 212.146 285.994 212.006 286.309 211.926C286.623 211.847 286.95 211.831 287.27 211.878C287.591 211.925 287.899 212.035 288.177 212.201L377.229 265.013C377.508 265.177 377.752 265.395 377.947 265.653C378.142 265.912 378.284 266.206 378.364 266.52C378.445 266.833 378.463 267.159 378.417 267.479C378.371 267.8 378.262 268.108 378.096 268.386C377.931 268.664 377.712 268.907 377.452 269.1C377.192 269.293 376.896 269.434 376.582 269.513C376.268 269.592 375.941 269.609 375.62 269.562C375.3 269.514 374.991 269.404 374.713 269.238Z" fill="#E6E6E6"/>
<path d="M339.156 261.055L309.864 243.684C309.586 243.519 309.343 243.301 309.15 243.043C308.956 242.784 308.815 242.49 308.735 242.177C308.656 241.865 308.638 241.539 308.684 241.22C308.731 240.9 308.839 240.593 309.005 240.316C309.17 240.038 309.388 239.796 309.647 239.602C309.906 239.409 310.201 239.269 310.514 239.189C310.828 239.11 311.154 239.092 311.474 239.139C311.794 239.185 312.102 239.293 312.38 239.458L341.671 256.83C341.949 256.994 342.192 257.212 342.386 257.471C342.579 257.729 342.72 258.023 342.8 258.336C342.879 258.649 342.897 258.974 342.85 259.294C342.804 259.613 342.695 259.92 342.53 260.198C342.365 260.475 342.147 260.717 341.888 260.911C341.629 261.104 341.334 261.244 341.021 261.324C340.708 261.404 340.382 261.421 340.061 261.375C339.741 261.329 339.434 261.22 339.156 261.055Z" fill="#E6E6E6"/>
<path d="M327.639 280.4L298.348 263.029C297.786 262.696 297.381 262.154 297.22 261.522C297.059 260.891 297.156 260.221 297.489 259.661C297.823 259.101 298.365 258.696 298.998 258.535C299.631 258.374 300.302 258.471 300.863 258.803L330.155 276.175C330.433 276.339 330.675 276.557 330.869 276.816C331.063 277.074 331.203 277.368 331.283 277.681C331.363 277.994 331.38 278.319 331.334 278.639C331.288 278.958 331.179 279.265 331.014 279.543C330.849 279.82 330.63 280.062 330.371 280.256C330.112 280.449 329.818 280.589 329.504 280.669C329.191 280.749 328.865 280.766 328.545 280.72C328.225 280.673 327.917 280.565 327.639 280.4Z" fill="#E6E6E6"/>
<path d="M321.741 290.308L292.449 272.937C292.17 272.772 291.927 272.555 291.733 272.296C291.538 272.038 291.397 271.743 291.317 271.43C291.236 271.117 291.219 270.791 291.265 270.471C291.311 270.152 291.42 269.844 291.585 269.566C291.751 269.288 291.969 269.046 292.229 268.852C292.488 268.659 292.783 268.518 293.097 268.439C293.411 268.36 293.738 268.343 294.058 268.39C294.379 268.436 294.687 268.546 294.965 268.712L324.256 286.083C324.536 286.247 324.78 286.465 324.975 286.723C325.17 286.982 325.311 287.276 325.392 287.589C325.473 287.903 325.49 288.229 325.444 288.549C325.398 288.87 325.289 289.178 325.124 289.456C324.958 289.734 324.739 289.977 324.479 290.17C324.22 290.364 323.924 290.504 323.61 290.583C323.295 290.662 322.968 290.679 322.648 290.632C322.327 290.584 322.019 290.475 321.741 290.308Z" fill="#E6E6E6"/>
<path d="M349.906 280.334L287.759 243.478C287.201 243.144 286.798 242.602 286.638 241.972C286.479 241.342 286.576 240.674 286.909 240.115C287.242 239.556 287.783 239.152 288.413 238.99C289.044 238.829 289.714 238.923 290.275 239.253L352.422 276.109C352.701 276.273 352.945 276.49 353.14 276.749C353.335 277.008 353.477 277.302 353.557 277.615C353.638 277.929 353.656 278.255 353.61 278.575C353.564 278.896 353.455 279.204 353.289 279.482C353.124 279.76 352.905 280.003 352.645 280.196C352.385 280.39 352.089 280.53 351.775 280.609C351.461 280.688 351.134 280.705 350.813 280.658C350.492 280.61 350.184 280.5 349.906 280.334Z" fill="#E6E6E6"/>
<path d="M338.061 327.436L327.425 321.128C326.472 320.562 325.783 319.64 325.51 318.567C325.237 317.493 325.402 316.356 325.968 315.404C326.535 314.452 327.457 313.763 328.533 313.489C329.608 313.215 330.748 313.379 331.702 313.943L342.338 320.251C343.293 320.817 343.983 321.738 344.257 322.812C344.531 323.886 344.366 325.025 343.799 325.978C343.232 326.931 342.308 327.62 341.232 327.893C340.156 328.166 339.015 328.002 338.061 327.436Z" fill="#FF8563"/>
<path d="M357.904 225.026C369.944 225.026 379.704 215.285 379.704 203.268C379.704 191.251 369.944 181.51 357.904 181.51C345.864 181.51 336.104 191.251 336.104 203.268C336.104 215.285 345.864 225.026 357.904 225.026Z" fill="#FF8563"/>
<path d="M0.481934 291.686H295.499V121.217C295.497 119.939 294.988 118.715 294.084 117.812C293.179 116.909 291.952 116.401 290.672 116.399H5.30884C4.02913 116.401 2.80225 116.909 1.89734 117.812C0.992436 118.715 0.483411 119.939 0.481934 121.217V291.686Z" fill="#CACACA"/>
<path d="M286.384 123.062H9.59668V279.898H286.384V123.062Z" fill="white"/>
<path d="M0.225098 287.073V308.109C0.225088 308.981 0.397177 309.845 0.731539 310.651C1.0659 311.456 1.55599 312.188 2.17382 312.805C2.79165 313.422 3.52513 313.911 4.33236 314.245C5.1396 314.578 6.00479 314.75 6.87854 314.75H115.767V356.265H114.32C114.207 356.265 114.095 356.288 113.99 356.331C113.885 356.374 113.79 356.438 113.709 356.518C113.629 356.598 113.565 356.693 113.522 356.798C113.479 356.903 113.456 357.015 113.456 357.128V360.016C113.456 360.129 113.479 360.241 113.522 360.346C113.565 360.45 113.629 360.546 113.709 360.626C113.79 360.706 113.885 360.769 113.99 360.813C114.095 360.856 114.207 360.878 114.32 360.878H181.917C182.031 360.878 182.143 360.856 182.248 360.813C182.353 360.769 182.448 360.706 182.528 360.626C182.608 360.546 182.672 360.45 182.716 360.346C182.759 360.241 182.781 360.129 182.781 360.016V357.128C182.781 357.015 182.759 356.903 182.716 356.798C182.672 356.693 182.608 356.598 182.528 356.518C182.448 356.438 182.353 356.374 182.248 356.331C182.143 356.288 182.031 356.265 181.917 356.265H180.471V314.75H289.359C290.233 314.75 291.098 314.578 291.905 314.245C292.712 313.911 293.446 313.422 294.064 312.805C294.682 312.188 295.172 311.456 295.506 310.651C295.84 309.845 296.012 308.981 296.012 308.109V287.073L0.225098 287.073Z" fill="#3F3D56"/>
<path d="M246.332 175.514H115.257C114.43 175.514 113.638 175.186 113.054 174.603C112.469 174.02 112.141 173.229 112.141 172.404C112.141 171.58 112.469 170.789 113.054 170.205C113.638 169.622 114.43 169.295 115.257 169.295H246.332C247.159 169.295 247.951 169.622 248.535 170.205C249.12 170.789 249.448 171.58 249.448 172.404C249.448 173.229 249.12 174.02 248.535 174.603C247.951 175.186 247.159 175.514 246.332 175.514Z" fill="#E6E6E6"/>
<path d="M202.352 189.551H159.237C158.411 189.551 157.618 189.224 157.034 188.641C156.45 188.057 156.122 187.266 156.122 186.442C156.122 185.617 156.45 184.826 157.034 184.243C157.618 183.659 158.411 183.332 159.237 183.332H202.352C203.178 183.332 203.971 183.659 204.555 184.243C205.139 184.826 205.468 185.617 205.468 186.442C205.468 187.266 205.139 188.057 204.555 188.641C203.971 189.224 203.178 189.551 202.352 189.551Z" fill="#E6E6E6"/>
<path d="M202.352 218.025H159.237C158.411 218.025 157.618 217.698 157.034 217.114C156.45 216.531 156.122 215.74 156.122 214.915C156.122 214.091 156.45 213.3 157.034 212.717C157.618 212.133 158.411 211.806 159.237 211.806H202.352C203.178 211.806 203.971 212.133 204.555 212.717C205.139 213.3 205.468 214.091 205.468 214.915C205.468 215.74 205.139 216.531 204.555 217.114C203.971 217.698 203.178 218.025 202.352 218.025Z" fill="#E6E6E6"/>
<path d="M202.352 232.609H159.237C158.828 232.609 158.423 232.529 158.045 232.373C157.667 232.216 157.323 231.987 157.034 231.699C156.745 231.41 156.515 231.067 156.359 230.69C156.202 230.313 156.122 229.908 156.122 229.5C156.122 229.091 156.202 228.687 156.359 228.31C156.515 227.932 156.745 227.59 157.034 227.301C157.323 227.012 157.667 226.783 158.045 226.627C158.423 226.471 158.828 226.39 159.237 226.39H202.352C202.761 226.39 203.166 226.471 203.544 226.627C203.922 226.783 204.265 227.012 204.555 227.301C204.844 227.59 205.074 227.932 205.23 228.31C205.387 228.687 205.467 229.091 205.467 229.5C205.467 229.908 205.387 230.313 205.23 230.69C205.074 231.067 204.844 231.41 204.555 231.699C204.265 231.987 203.922 232.216 203.544 232.373C203.166 232.529 202.761 232.609 202.352 232.609Z" fill="#E6E6E6"/>
<path d="M226.532 203.589H135.057C134.231 203.589 133.439 203.261 132.854 202.678C132.27 202.095 131.942 201.304 131.942 200.479C131.942 199.654 132.27 198.863 132.854 198.28C133.439 197.697 134.231 197.369 135.057 197.369H226.532C227.358 197.369 228.151 197.697 228.735 198.28C229.319 198.863 229.647 199.654 229.647 200.479C229.647 201.304 229.319 202.095 228.735 202.678C228.151 203.261 227.358 203.589 226.532 203.589Z" fill="#E6E6E6"/>
<path d="M244.15 262.47H228.496C227.091 262.47 225.743 261.912 224.75 260.921C223.756 259.929 223.198 258.584 223.198 257.182C223.198 255.779 223.756 254.434 224.75 253.443C225.743 252.451 227.091 251.894 228.496 251.894H244.15C245.556 251.894 246.903 252.451 247.897 253.443C248.89 254.434 249.449 255.779 249.449 257.182C249.449 258.584 248.89 259.929 247.897 260.921C246.903 261.912 245.556 262.47 244.15 262.47Z" fill="#FF8563"/>
<path d="M74.0392 224.09C89.0891 224.09 101.289 211.913 101.289 196.892C101.289 181.871 89.0891 169.694 74.0392 169.694C58.9894 169.694 46.7891 181.871 46.7891 196.892C46.7891 211.913 58.9894 224.09 74.0392 224.09Z" fill="#FF8563"/>
<path d="M392.921 362H0.945996C0.755129 362 0.572272 361.923 0.437503 361.789C0.302735 361.654 0.227051 361.471 0.227051 361.28C0.227051 361.09 0.302735 360.907 0.437503 360.772C0.572272 360.637 0.755129 360.561 0.945996 360.561H392.921C393.112 360.561 393.295 360.637 393.43 360.772C393.564 360.907 393.64 361.09 393.64 361.28C393.64 361.471 393.564 361.654 393.43 361.789C393.295 361.923 393.112 362 392.921 362Z" fill="#CACACA"/>
<path d="M147.862 119.731C148.429 119.731 148.889 119.272 148.889 118.705C148.889 118.139 148.429 117.68 147.862 117.68C147.295 117.68 146.835 118.139 146.835 118.705C146.835 119.272 147.295 119.731 147.862 119.731Z" fill="white"/>
</g>
<defs>
<clipPath id="clip0_2211_205">
<rect width="441" height="362" fill="white" transform="translate(0.225098)"/>
</clipPath>
</defs>
</svg>
