<svg width="441" height="542" viewBox="0 0 441 542" fill="none" xmlns="http://www.w3.org/2000/svg">
<g clip-path="url(#clip0_2211_33)">
<path d="M133.065 540.714C143.243 540.714 151.494 532.456 151.494 522.27C151.494 512.083 143.243 503.825 133.065 503.825C122.887 503.825 114.636 512.083 114.636 522.27C114.636 532.456 122.887 540.714 133.065 540.714Z" fill="#FF8563"/>
<path d="M128.662 531.599C128.308 531.599 127.956 531.499 127.646 531.3C127.105 530.952 126.782 530.36 126.782 529.716V516.407C126.782 515.728 127.132 515.12 127.719 514.779C128.306 514.439 129.007 514.436 129.596 514.774L142.525 522.167C143.141 522.52 143.503 523.179 143.471 523.888C143.439 524.596 143.019 525.219 142.374 525.514L129.445 531.428C129.194 531.543 128.928 531.599 128.662 531.599Z" fill="white"/>
<path d="M288.853 527.171C290.583 527.28 291.54 525.128 290.23 523.874L290.1 523.356C290.117 523.314 290.135 523.273 290.152 523.231C291.902 519.054 297.833 519.083 299.569 523.266C301.109 526.979 303.069 530.697 303.552 534.623C303.769 536.356 303.671 538.121 303.287 539.821C306.896 531.932 308.795 523.316 308.795 514.652C308.795 512.475 308.676 510.299 308.432 508.127C308.232 506.351 307.956 504.586 307.599 502.837C305.668 493.382 301.486 484.377 295.453 476.856C292.553 475.269 290.135 472.789 288.674 469.816C288.149 468.744 287.738 467.591 287.543 466.416C287.873 466.459 288.787 461.429 288.538 461.12C288.998 460.421 289.822 460.074 290.324 459.393C292.822 456.003 296.264 456.595 298.061 461.201C301.899 463.14 301.936 466.356 299.581 469.448C298.083 471.416 297.877 474.078 296.562 476.184C296.697 476.358 296.838 476.525 296.973 476.699C299.454 479.883 301.599 483.305 303.407 486.901C302.896 482.905 303.651 478.091 304.937 474.988C306.402 471.452 309.147 468.474 311.564 465.418C314.467 461.746 320.421 463.348 320.932 468.003C320.937 468.048 320.942 468.093 320.947 468.138C320.588 468.34 320.236 468.556 319.892 468.783C317.933 470.08 318.61 473.121 320.932 473.48L320.985 473.488C320.855 474.782 320.633 476.065 320.308 477.327C323.409 489.329 316.715 493.7 307.156 493.897C306.945 494.005 306.739 494.113 306.528 494.216C307.496 496.945 308.27 499.745 308.844 502.582C309.358 505.089 309.715 507.624 309.915 510.169C310.164 513.38 310.142 516.607 309.872 519.813L309.888 519.699C310.575 516.169 312.49 512.871 315.271 510.586C319.414 507.18 325.267 505.925 329.736 503.188C331.888 501.87 334.645 503.573 334.269 506.069L334.251 506.189C333.585 506.459 332.936 506.774 332.308 507.125C331.949 507.328 331.598 507.544 331.254 507.771C329.294 509.068 329.972 512.109 332.294 512.467L332.346 512.475C332.384 512.481 332.417 512.486 332.455 512.492C331.313 515.205 329.722 517.723 327.731 519.894C325.792 530.371 317.465 531.365 308.557 528.314H308.552C307.578 532.56 306.155 536.708 304.326 540.66H289.231C289.177 540.493 289.128 540.319 289.08 540.151C290.475 540.238 291.882 540.157 293.256 539.902C292.136 538.527 291.016 537.141 289.897 535.765C289.869 535.738 289.848 535.711 289.826 535.684C289.258 534.98 288.685 534.282 288.116 533.578L288.116 533.577C288.081 531.416 288.34 529.262 288.853 527.171Z" fill="#F2F2F2"/>
<path d="M2.10156 541.002C2.10156 541.556 2.54555 542 3.09844 542H340.921C341.474 542 341.918 541.556 341.918 541.002C341.918 540.449 341.474 540.005 340.921 540.005H3.09844C2.54555 540.005 2.10156 540.449 2.10156 541.002Z" fill="#CCCCCC"/>
<path d="M435.199 334.177H142.015C139.243 334.177 136.989 336.433 136.989 339.208C136.989 341.983 139.243 344.238 142.015 344.238H435.199C437.972 344.238 440.225 341.983 440.225 339.208C440.225 336.433 437.972 334.177 435.199 334.177Z" fill="#E6E6E6"/>
<path d="M335.935 334.177V344.238H142.015C139.243 344.238 136.989 341.983 136.989 339.208C136.989 336.433 139.243 334.177 142.015 334.177H335.935Z" fill="#3F3D56"/>
<path d="M227.735 525.849C226.633 523.005 223.436 521.595 220.594 522.698C217.78 523.791 216.372 526.941 217.417 529.764L217.335 529.796L221.328 540.094L230.796 536.417C231.109 536.355 231.421 536.266 231.728 536.147C234.57 535.043 235.979 531.843 234.876 529C233.774 526.156 230.577 524.745 227.735 525.849Z" fill="#FF6584"/>
<path d="M58.9256 0C48.1985 0 39.5024 8.70342 39.5024 19.4396V292.151H41.2145V135.092C41.2145 61.4289 100.879 1.71349 174.48 1.71349L430.16 1.40193L429.849 0L58.9256 0Z" fill="#E6E6E6"/>
<path d="M107.199 66.8777C111.197 66.8777 114.438 63.5616 114.438 59.471C114.438 55.3804 111.197 52.0643 107.199 52.0643C103.201 52.0643 99.9595 55.3804 99.9595 59.471C99.9595 63.5616 103.201 66.8777 107.199 66.8777Z" fill="#3F3D56"/>
<path d="M132.206 66.8777C136.204 66.8777 139.445 63.5616 139.445 59.471C139.445 55.3804 136.204 52.0643 132.206 52.0643C128.208 52.0643 124.967 55.3804 124.967 59.471C124.967 63.5616 128.208 66.8777 132.206 66.8777Z" fill="#3F3D56"/>
<path d="M157.214 66.8777C161.212 66.8777 164.453 63.5616 164.453 59.471C164.453 55.3804 161.212 52.0643 157.214 52.0643C153.216 52.0643 149.975 55.3804 149.975 59.471C149.975 63.5616 153.216 66.8777 157.214 66.8777Z" fill="#3F3D56"/>
<path d="M57.4942 534.36L67.4282 534.359L72.1538 496.009L57.4922 496.01L57.4942 534.36Z" fill="#FFB6B6"/>
<path d="M91.5295 534.134C91.8388 534.655 92.002 536.338 92.002 536.944C92.002 538.808 90.4926 540.319 88.6304 540.319H57.866C56.5957 540.319 55.5658 539.288 55.5658 538.017V536.735C55.5658 536.735 54.0439 532.882 57.1772 528.133C57.1772 528.133 61.0715 531.852 66.8905 526.028L68.6065 522.917L81.0279 532.009L87.9128 532.857C89.4191 533.042 90.7547 532.828 91.5295 534.134Z" fill="#2F2E41"/>
<path d="M120.468 501.853L130.152 504.069L143.301 467.739L129.008 464.469L120.468 501.853Z" fill="#FFB6B6"/>
<path d="M153.697 509.228C153.882 509.805 153.666 511.482 153.531 512.073C153.116 513.89 151.308 515.026 149.493 514.61L119.503 507.746C118.264 507.462 117.49 506.228 117.773 504.988L118.059 503.739C118.059 503.739 117.433 499.643 121.546 495.713C121.546 495.713 124.514 500.207 131.484 495.828L133.849 493.178L143.933 504.813L150.456 507.176C151.883 507.693 153.232 507.782 153.697 509.228Z" fill="#2F2E41"/>
<path d="M51.323 321.033L39.7144 336.962L54.6737 510.506H73.907L77.2907 425.83L86.505 361.275L134.252 411.578L124.2 475.294L143.466 482.84L165.246 401.517L128.388 340.315L123.362 324.386L51.323 321.033Z" fill="#2F2E41"/>
<path d="M104.096 182.7H80.0808L72.2647 192.761L44.6217 205.337L48.81 308.457L39.5957 336.962C39.5957 336.962 83.1544 357.921 123.362 324.386L122.525 294.205L136.765 207.013L111.635 191.084L104.096 182.7Z" fill="#FF8563"/>
<path d="M18.1435 332.028C18.8766 329.562 20.1053 327.467 21.5556 325.979L27.0569 302.049L38.3575 305.002L31.5602 328.959C31.9619 330.998 31.846 333.425 31.1129 335.89C29.4382 341.523 25.1772 345.225 21.5958 344.158C18.0144 343.091 16.4687 337.66 18.1435 332.028Z" fill="#FFB6B6"/>
<path d="M57.5427 207.042L50.1744 203.269C50.1744 203.269 43.0934 203.756 39.8095 210.329C36.5255 216.903 36.5255 264.231 36.5255 264.231L21.4194 318.791L34.5552 326.022L52.4125 275.406L57.5427 207.042Z" fill="#FF8563"/>
<path d="M137.004 338.218C136.953 335.646 137.487 333.275 138.417 331.417L136.387 306.946L148.049 306.32L148.853 331.211C149.855 333.031 150.482 335.378 150.533 337.95C150.649 343.826 147.714 348.649 143.978 348.723C140.242 348.797 137.12 344.093 137.004 338.218Z" fill="#FFB6B6"/>
<path d="M136.563 207.16L128.397 205.808C128.397 205.808 121.8 208.427 120.668 215.688C119.537 222.95 133.917 268.037 133.917 268.037L136.103 324.61L150.814 327.501L152.447 273.848L136.563 207.16Z" fill="#FF8563"/>
<path d="M94.1248 178.401C107.06 178.401 117.546 167.906 117.546 154.959C117.546 142.013 107.06 131.518 94.1248 131.518C81.1894 131.518 70.7031 142.013 70.7031 154.959C70.7031 167.906 81.1894 178.401 94.1248 178.401Z" fill="#FFB6B6"/>
<path d="M314.307 200.655C320.073 200.655 324.747 196.076 324.747 190.427C324.747 184.777 320.073 180.198 314.307 180.198C308.541 180.198 303.867 184.777 303.867 190.427C303.867 196.076 308.541 200.655 314.307 200.655Z" fill="#FF8563"/>
<path d="M398.001 193.634H341.806C339.878 193.634 338.31 192.064 338.31 190.135C338.31 188.205 339.878 186.636 341.806 186.636H398.001C399.929 186.636 401.497 188.205 401.497 190.135C401.497 192.064 399.929 193.634 398.001 193.634Z" fill="#E6E6E6"/>
<path d="M11.9524 346.184C18.4293 346.184 23.6798 340.929 23.6798 334.447C23.6798 327.964 18.4293 322.709 11.9524 322.709C5.47561 322.709 0.225098 327.964 0.225098 334.447C0.225098 340.929 5.47561 346.184 11.9524 346.184Z" fill="#3F3D56"/>
<path d="M18.0524 327.574C17.4936 327.247 16.6402 327.416 16.3332 328.025C14.9393 330.789 13.5454 333.553 12.1515 336.316C11.027 334.553 9.58846 333.014 7.91967 331.724C7.38217 331.308 6.51199 331.642 6.20052 332.175C5.82089 332.824 6.11248 333.479 6.65131 333.895C8.59731 335.4 10.0979 337.422 11.1083 339.654C11.4924 340.503 12.8773 340.449 13.2782 339.654C15.0199 336.201 16.7615 332.748 18.5031 329.294C18.8088 328.688 18.6631 327.931 18.0524 327.574Z" fill="white"/>
<path d="M388.441 218.75H232.721C222.767 218.75 214.668 210.645 214.668 200.682V124.476C214.668 114.513 222.767 106.408 232.721 106.408H388.441C398.395 106.408 406.494 114.513 406.494 124.476V200.682C406.494 210.645 398.395 218.75 388.441 218.75ZM232.721 108.085C223.69 108.085 216.343 115.438 216.343 124.476V200.682C216.343 209.721 223.69 217.074 232.721 217.074H388.441C397.472 217.074 404.819 209.721 404.819 200.682V124.476C404.819 115.438 397.472 108.085 388.441 108.085H232.721Z" fill="#E6E6E6"/>
<path d="M120.256 139.864C114.148 140.35 114.986 137.428 114.986 137.428L115.535 132.453C115.377 131.591 115.078 130.896 114.485 130.56C113.092 129.771 111.677 131.263 110.201 130.642C108.854 130.076 107.503 129.508 106.092 129.127C104.302 128.644 103.432 130.577 101.583 130.721C99.8345 130.857 97.1188 129.167 95.4148 129.583C93.9151 129.949 95.8745 127.621 94.0441 127.367L88.1804 130.721C88.1804 130.721 85.9395 132.676 85.6674 130.721C80.8823 131.491 77.1395 128.145 75.5552 136.287C74.5532 141.437 69.4222 144.248 68.0553 149.313C66.1084 156.529 69.414 162.78 73.7836 167.784C74.8637 169.021 73.1573 171.185 73.9449 172.626C74.6771 173.965 76.3304 174.594 77.0768 175.926C77.7151 177.064 78.8678 175.169 79.607 176.245C80.2448 177.174 77.8405 177.654 78.9661 177.67C79.5184 177.678 80.94 177.791 81.4791 177.67C83.5188 177.802 81.9188 177.72 83.6229 177.826C84.3656 173.491 81.4631 172.242 79.9473 168.114C79.4415 166.736 78.8131 165.394 78.5041 163.959C78.195 162.524 78.239 160.942 79.0126 159.695C80.1959 157.787 82.9531 157.2 84.9627 158.198C86.9722 159.196 88.1569 161.495 88.1415 163.74C89.8774 162.267 91.2371 160.404 92.193 158.346L91.5311 155.034C91.5311 155.034 92.308 155.67 92.9739 156.349C94.1926 152.539 94.1033 148.298 92.4625 144.643C93.3194 143.965 99.5974 146.69 104.934 147.902V147.488L109.122 148.327C113.262 149.079 114.383 150.106 113.31 145.812C112.96 144.409 114.986 150.842 118.336 149.165C120.436 148.115 117.929 146.11 119.296 144.201C120.186 142.96 120.458 141.389 120.256 139.864Z" fill="#2F2E41"/>
<path d="M340.052 277.13H176.639V277.969H340.052V277.13Z" fill="#3F3D56"/>
<path d="M251.628 231.447L244.734 228.179C247.562 232.128 249.998 238.296 251.303 243.205C253.511 238.633 257.072 233.038 260.596 229.697L253.31 231.573C257.799 209.55 274.686 193.74 294.024 193.74V192.063C273.825 192.063 256.212 208.536 251.628 231.447Z" fill="#3F3D56"/>
<path d="M283.359 265.002H239.8C237.952 265.002 236.449 263.498 236.449 261.649C236.449 259.8 237.952 258.295 239.8 258.295H283.359C285.206 258.295 286.709 259.8 286.709 261.649C286.709 263.498 285.206 265.002 283.359 265.002Z" fill="#FF8563"/>
</g>
<defs>
<clipPath id="clip0_2211_33">
<rect width="440" height="542" fill="white" transform="translate(0.225098)"/>
</clipPath>
</defs>
</svg>
