<svg width="442" height="389" viewBox="0 0 442 389" fill="none" xmlns="http://www.w3.org/2000/svg">
<g clip-path="url(#clip0_2211_171)">
<path d="M341.792 249.2C341.418 248.556 341.191 247.837 341.125 247.095C341.059 246.353 341.157 245.606 341.412 244.906C341.667 244.206 342.072 243.57 342.6 243.043C343.127 242.516 343.764 242.112 344.465 241.857L344.202 223.752L352.141 228.818L351.173 245.234C351.523 246.439 351.418 247.729 350.879 248.862C350.34 249.994 349.403 250.89 348.247 251.379C347.09 251.868 345.794 251.916 344.605 251.514C343.415 251.113 342.414 250.29 341.792 249.2Z" fill="#A0616A"/>
<path d="M332.224 150.905C329.87 151.32 327.734 152.537 326.178 154.349C324.622 156.161 323.743 158.455 323.691 160.842C323.576 166.14 325.346 168.116 327.848 168.83C332.473 170.15 339.839 196.841 339.839 196.841C339.839 196.841 340.621 221.737 341.882 220.507C343.143 219.278 341.716 222.147 342.099 223.022C342.482 223.897 340.283 225.208 342.374 226.202C344.464 227.197 343.143 235.115 343.143 235.115L352.393 234.456C352.393 234.456 350.857 228.005 352.947 227.601C355.036 227.197 354.087 225.361 353.24 223.969C352.393 222.577 354.738 220.594 353.566 219.936C352.393 219.278 355.697 193.542 355.697 193.542L342.78 155.585C341.687 153.844 340.098 152.468 338.218 151.635C336.337 150.801 334.25 150.547 332.224 150.905Z" fill="#FF8563"/>
<path d="M304.16 152.399L310.814 140.75H319.804L326.547 153.059L304.16 152.399Z" fill="#FF8563"/>
<path d="M286.262 47.6485C280.945 29.8614 265.924 18.2494 247.774 15.7021C247.574 15.674 247.385 15.7111 247.186 15.6983C246.929 15.6198 246.667 15.5595 246.401 15.5178C221.44 12.2958 194.192 18.0663 172.505 31.6185C151.717 44.6089 127.831 51.9387 103.31 51.7759C102.548 51.7708 101.784 51.7873 101.016 51.8253C82.1454 52.7658 65.4914 66.4852 60.3898 84.5302C59.7203 86.8978 60.8869 89.0133 62.763 90.355C66.0596 92.7131 68.3114 94.3658 72.3674 95.224C79.6047 96.7553 86.8666 98.1633 94.1533 99.4482V70.4596C94.1565 67.7153 95.2495 65.0842 97.1925 63.1437C99.1355 61.2031 101.77 60.1115 104.518 60.1083H246.884C249.632 60.1115 252.266 61.2031 254.209 63.1437C256.152 65.0842 257.245 67.7153 257.249 70.4596V106.561C259.201 105.951 261.107 105.202 262.952 104.319C269.82 100.931 275.688 95.8168 279.978 89.4794C288.221 77.5351 290.398 61.4823 286.262 47.6485Z" fill="#F2F2F2"/>
<path d="M226.32 217.298H100.466C97.5617 217.295 94.7774 216.141 92.7238 214.09C90.6702 212.039 89.515 209.258 89.5117 206.358V157.584C74.1828 152.898 58.0381 151.484 42.1267 153.436C41.8612 153.478 41.599 153.538 41.342 153.617C41.1432 153.63 40.9537 153.592 40.754 153.621C22.6035 156.168 7.58264 167.78 2.2658 185.567C-1.86964 199.401 0.307326 215.454 8.54965 227.398C12.8404 233.735 18.7078 238.849 25.5756 242.237C35.0157 246.779 44.9517 247.12 55.255 247.441C86.1903 248.405 117.155 247.236 147.929 243.942C163.074 242.32 178.156 240.2 193.175 237.582C200.862 236.238 208.524 234.758 216.161 233.142C220.217 232.284 222.468 230.632 225.765 228.273C227.641 226.932 228.808 224.816 228.138 222.449C227.641 220.695 227.033 218.975 226.32 217.298Z" fill="#F2F2F2"/>
<path d="M237.458 202.829H113.944C111.56 202.826 109.275 201.879 107.589 200.195C105.903 198.512 104.955 196.229 104.952 193.848V79.2088C104.955 76.8279 105.903 74.5453 107.589 72.8617C109.275 71.1781 111.56 70.231 113.944 70.2283H237.458C239.842 70.231 242.127 71.1781 243.813 72.8617C245.498 74.5453 246.447 76.8279 246.449 79.2088V193.848C246.447 196.229 245.498 198.512 243.813 200.195C242.127 201.879 239.842 202.826 237.458 202.829Z" fill="#E6E6E6"/>
<path d="M211.461 196.771H120.01C117.626 196.768 115.341 195.821 113.655 194.138C111.97 192.454 111.021 190.172 111.019 187.791V85.2712C111.021 82.8903 111.97 80.6076 113.655 78.924C115.341 77.2405 117.626 76.2934 120.01 76.2906H231.392C233.776 76.2934 236.062 77.2405 237.747 78.924C239.433 80.6076 240.381 82.8903 240.384 85.2712V167.885C240.376 175.543 237.326 182.886 231.903 188.301C226.481 193.716 219.13 196.763 211.461 196.771Z" fill="white"/>
<path d="M175.701 176.785C197.961 176.785 216.006 158.762 216.006 136.531C216.006 114.299 197.961 96.2771 175.701 96.2771C153.442 96.2771 135.397 114.299 135.397 136.531C135.397 158.762 153.442 176.785 175.701 176.785Z" fill="#FF8563"/>
<path d="M192.68 134.506L179.23 118.171C178.865 117.727 178.408 117.369 177.891 117.12C177.374 116.87 176.808 116.736 176.234 116.727C175.659 116.717 175.09 116.833 174.564 117.065C174.039 117.297 173.57 117.64 173.191 118.071L158.808 134.406C158.115 135.195 157.764 136.226 157.832 137.273C157.9 138.32 158.381 139.297 159.17 139.99C159.959 140.683 160.991 141.035 162.04 140.969C163.088 140.902 164.068 140.422 164.762 139.635L172.204 131.184V152.376C172.204 153.426 172.622 154.433 173.365 155.176C174.109 155.919 175.117 156.336 176.168 156.336C177.22 156.336 178.228 155.919 178.972 155.176C179.715 154.433 180.133 153.426 180.133 152.376V131.734L186.556 139.535C187.224 140.347 188.187 140.859 189.233 140.961C190.28 141.063 191.324 140.746 192.136 140.079C192.948 139.412 193.462 138.45 193.564 137.405C193.666 136.36 193.348 135.317 192.68 134.506Z" fill="white"/>
<path d="M349.389 381.634L343.41 381.634L340.565 358.599L349.391 358.599L349.389 381.634Z" fill="#A0616A"/>
<path d="M349.6 387.864L331.212 387.863V387.631C331.213 385.735 331.967 383.917 333.309 382.577C334.651 381.236 336.471 380.483 338.369 380.483L341.729 377.938L347.995 380.484L349.6 380.484L349.6 387.864Z" fill="#2F2E41"/>
<path d="M304.46 381.634L298.481 381.634L295.636 358.599L304.462 358.599L304.46 381.634Z" fill="#A0616A"/>
<path d="M304.67 387.864L286.283 387.863V387.631C286.283 385.735 287.037 383.917 288.379 382.577C289.721 381.236 291.542 380.483 293.44 380.483L296.799 377.938L303.066 380.484L304.671 380.484L304.67 387.864Z" fill="#2F2E41"/>
<path d="M351.296 362.57C353.477 361.146 352.213 361.238 352.213 361.238C352.213 361.238 347.335 321.737 343.624 309.766L339.329 251.473C339.329 251.473 339.057 252.636 339.329 249.81C339.602 246.984 341.584 248.963 339.602 246.984C337.62 245.004 336.298 243.995 337.62 242.52C338.941 241.045 342.587 238.06 340.434 236.253C338.281 234.446 334.044 222.66 334.044 222.66L292.748 222.99L294.4 222.66C294.4 222.66 289.245 220.75 291.606 223.237C293.968 225.725 290.285 231.816 288.963 237.755C287.869 242.674 284.62 243.979 288.963 245.014C293.307 246.049 289.376 248.98 289.376 248.98C289.376 248.98 282.837 280.071 287.792 300.528C287.792 300.528 291.211 351.123 292.942 355.475C294.672 359.826 295.333 357.186 294.672 359.826C294.012 362.466 292.69 357.846 294.012 362.466C294.733 364.879 295.304 367.334 295.721 369.817L304.682 369.157C304.682 369.157 306.763 362.606 304.682 360.886C302.601 359.166 304.038 364.186 306.293 360.356C308.548 356.527 305.905 357.846 305.244 352.567C304.583 347.288 310.645 322.695 306.293 307.606L314.336 265.265L327.106 309.106C327.106 309.106 333.879 362.651 336.08 364.538C338.281 366.425 337.392 361.844 338.281 366.425C339.179 371.054 341.218 369.827 341.161 370.394C340.546 376.447 351.296 370.477 351.296 370.477C351.191 368.939 351.191 367.396 351.296 365.858C351.495 364.445 349.114 363.993 351.296 362.57Z" fill="#2F2E41"/>
<path d="M296.892 236.435C294.249 236.435 286.981 232.86 288.303 231.348C289.624 229.836 289.624 224.817 289.624 223.367C289.624 221.917 295.571 168.466 295.571 168.466L295.119 155.378C295.092 154.594 295.223 153.812 295.505 153.079C295.787 152.347 296.214 151.678 296.76 151.114C297.306 150.549 297.96 150.1 298.683 149.793C299.407 149.487 300.185 149.329 300.971 149.329L306.803 147.349L323.321 146.689L331.558 149.329C332.375 149.329 333.179 149.538 333.892 149.937C334.605 150.336 335.203 150.911 335.63 151.607C336.057 152.303 336.298 153.097 336.33 153.913C336.361 154.728 336.183 155.538 335.811 156.265C340.182 163.392 342.376 171.638 342.123 179.992C341.934 186.242 338.763 193.875 337.999 200.936C337.932 201.555 337.884 202.171 337.857 202.78C337.85 202.95 336.497 203.798 337.838 203.289C339.179 202.78 337.12 204.576 337.819 205.658C338.518 206.74 339.873 206.077 337.874 207.398C335.875 208.72 340.274 221.483 339.839 221.917C338.518 223.237 335.875 223.897 337.857 225.877C339.839 227.857 341.822 226.537 339.179 229.176C336.536 231.816 328.617 236.435 328.617 236.435L296.892 236.435Z" fill="#3F3D56"/>
<path d="M314.556 139.026C322.41 139.026 328.777 132.667 328.777 124.823C328.777 116.979 322.41 110.62 314.556 110.62C306.702 110.62 300.335 116.979 300.335 124.823C300.335 132.667 306.702 139.026 314.556 139.026Z" fill="#A0616A"/>
<path d="M227.941 168.891C228.623 168.59 229.363 168.441 230.109 168.457C230.854 168.472 231.588 168.651 232.257 168.98C232.926 169.309 233.515 169.78 233.982 170.361C234.449 170.942 234.782 171.618 234.959 172.341L253.008 174.047L247.104 181.379L230.87 178.635C229.633 178.852 228.36 178.608 227.291 177.949C226.222 177.291 225.433 176.264 225.072 175.062C224.711 173.861 224.803 172.569 225.332 171.432C225.861 170.295 226.789 169.39 227.941 168.891Z" fill="#A0616A"/>
<path d="M313.518 158.318C313.102 155.968 311.884 153.834 310.07 152.28C308.256 150.726 305.958 149.848 303.569 149.796C298.264 149.681 296.286 151.449 295.571 153.948C294.249 158.567 272.976 174.805 272.976 174.805L254.706 172.83C253.607 172.474 254.128 171.475 249.998 172.321C247.963 170.991 246.647 171.216 245.515 171.837L238.748 171.105L239.409 181.664C239.409 181.664 246.653 179.943 247.998 182.984C249.344 186.024 249.036 186.461 251.963 184.303C254.889 182.146 254.606 184.303 254.606 184.303L275.749 189.583L308.832 168.861C310.576 167.769 311.953 166.183 312.788 164.304C313.623 162.426 313.877 160.342 313.518 158.318Z" fill="#FF8563"/>
<path d="M320.077 137.503L321.009 137.8C318.095 138.045 312.902 139.668 313.41 138.77C313.919 137.873 311.996 134.488 312.935 134.059C313.91 133.717 314.78 133.128 315.459 132.35C316.053 131.518 316.04 130.146 315.148 129.637C314.282 129.136 313.212 129.677 312.353 130.185C311.488 130.687 309.889 123.309 310.298 121.006C307.887 119.686 304.966 122.214 302.257 121.719C300.599 121.415 299.403 120.056 298.65 118.512C299.88 117.346 300.796 115.889 301.312 114.275C300.162 114.854 298.934 115.261 297.665 115.483C297.438 114.284 297.469 113.051 297.758 111.866C297.979 110.92 298.431 110.044 299.073 109.314C299.715 108.584 300.527 108.024 301.438 107.683C302.362 107.377 303.363 107.394 304.276 107.732C305.189 108.071 305.959 108.71 306.459 109.544C306.515 108.645 306.285 107.752 305.8 106.993C305.316 106.235 304.603 105.649 303.764 105.32C304.376 105.003 305.053 104.831 305.743 104.819C306.433 104.806 307.116 104.952 307.74 105.247C308.363 105.541 308.91 105.976 309.338 106.516C309.766 107.057 310.063 107.688 310.206 108.362C313.19 106.869 316.613 106.503 319.846 107.333C323.044 108.171 327.286 111.715 327.286 111.715C334.501 113.305 334.157 140.704 320.077 137.503Z" fill="#2F2E41"/>
<path d="M395.418 382.201C395.582 382.209 395.745 382.165 395.884 382.077C396.024 381.989 396.132 381.861 396.196 381.709C396.26 381.557 396.275 381.389 396.24 381.228C396.205 381.068 396.121 380.921 396 380.81L395.945 380.591L395.967 380.539C396.133 380.147 396.411 379.814 396.766 379.58C397.121 379.346 397.537 379.222 397.962 379.223C398.388 379.225 398.803 379.352 399.156 379.589C399.51 379.825 399.785 380.161 399.948 380.553C400.599 382.12 401.428 383.689 401.632 385.345C401.722 386.077 401.684 386.819 401.52 387.538C403.05 384.206 403.844 380.585 403.849 376.919C403.849 375.999 403.798 375.08 403.696 374.166C403.611 373.417 403.494 372.673 403.343 371.934C402.524 367.926 400.764 364.169 398.208 360.973C396.971 360.299 395.971 359.262 395.342 358.003C395.114 357.55 394.953 357.067 394.864 356.568C395.135 355.854 395.277 355.097 395.285 354.334C395.479 354.039 395.827 353.892 396.04 353.605C397.096 352.175 398.551 352.424 399.311 354.368C400.933 355.186 400.949 356.543 399.953 357.847C399.32 358.677 399.233 359.801 398.677 360.689C398.734 360.763 398.794 360.833 398.851 360.906C399.896 362.249 400.807 363.691 401.571 365.211C401.385 363.508 401.607 361.785 402.218 360.185C402.837 358.693 403.998 357.436 405.02 356.147C405.29 355.8 405.657 355.542 406.074 355.404C406.492 355.266 406.941 355.254 407.365 355.371C407.789 355.488 408.168 355.727 408.456 356.06C408.744 356.392 408.926 356.802 408.981 357.237L408.987 357.295C408.835 357.38 408.686 357.471 408.541 357.567C408.358 357.689 408.217 357.863 408.135 358.066C408.053 358.27 408.035 358.494 408.082 358.708C408.13 358.922 408.241 359.117 408.401 359.267C408.561 359.417 408.763 359.515 408.98 359.548L409.003 359.552C408.949 360.098 408.853 360.64 408.717 361.171C410.028 366.235 407.197 368.079 403.156 368.162C403.067 368.208 402.98 368.254 402.891 368.297C403.658 370.469 404.139 372.732 404.322 375.028C404.426 376.382 404.42 377.743 404.304 379.096L404.311 379.048C404.604 377.543 405.408 376.185 406.587 375.203C408.339 373.766 410.813 373.237 412.703 372.082C412.904 371.953 413.137 371.885 413.376 371.884C413.614 371.884 413.848 371.951 414.05 372.079C414.251 372.207 414.412 372.389 414.513 372.605C414.614 372.821 414.651 373.062 414.619 373.298L414.611 373.348C414.33 373.463 414.056 373.595 413.79 373.744C413.639 373.829 413.49 373.92 413.345 374.016C413.162 374.138 413.02 374.312 412.939 374.515C412.857 374.719 412.838 374.943 412.886 375.157C412.933 375.371 413.045 375.566 413.205 375.716C413.365 375.866 413.567 375.964 413.784 375.997L413.806 376.001L413.852 376.008C413.371 377.155 412.695 378.212 411.855 379.131C411.035 383.551 407.515 383.97 403.748 382.683H403.746C403.333 384.477 402.734 386.222 401.96 387.892H395.577C395.555 387.821 395.534 387.748 395.513 387.677C396.104 387.714 396.697 387.679 397.279 387.572C396.806 386.992 396.332 386.407 395.859 385.827C395.848 385.816 395.838 385.805 395.829 385.793C395.589 385.496 395.346 385.201 395.106 384.904C395.093 383.993 395.198 383.085 395.418 382.201Z" fill="#F2F2F2"/>
<path d="M182.936 388.797L440.438 389C440.647 389 440.847 388.917 440.995 388.77C441.142 388.623 441.225 388.423 441.225 388.214C441.225 388.006 441.142 387.806 440.995 387.659C440.847 387.511 440.647 387.429 440.438 387.429L182.936 387.226C182.727 387.226 182.527 387.309 182.379 387.456C182.232 387.603 182.149 387.803 182.149 388.012C182.149 388.22 182.232 388.42 182.379 388.567C182.527 388.714 182.727 388.797 182.936 388.797Z" fill="#CACACA"/>
<path d="M169.78 278.669C167.931 278.669 166.124 278.121 164.587 277.096C163.05 276.07 161.852 274.612 161.145 272.906C160.438 271.201 160.253 269.324 160.613 267.513C160.974 265.702 161.864 264.039 163.171 262.734C164.478 261.428 166.144 260.539 167.957 260.179C169.77 259.819 171.649 260.004 173.357 260.71C175.064 261.417 176.524 262.613 177.551 264.148C178.578 265.683 179.126 267.488 179.126 269.334C179.123 271.809 178.138 274.182 176.386 275.932C174.634 277.682 172.258 278.666 169.78 278.669ZM169.78 261.319C168.193 261.319 166.641 261.789 165.322 262.67C164.002 263.551 162.973 264.802 162.366 266.267C161.759 267.731 161.6 269.343 161.909 270.898C162.219 272.452 162.983 273.881 164.105 275.001C165.228 276.122 166.658 276.886 168.214 277.195C169.771 277.504 171.385 277.345 172.851 276.739C174.317 276.132 175.571 275.105 176.452 273.787C177.334 272.469 177.805 270.919 177.805 269.334C177.802 267.209 176.956 265.172 175.452 263.669C173.947 262.167 171.908 261.322 169.78 261.319Z" fill="#F2F2F2"/>
<path d="M173.439 268.897L170.54 265.377C170.462 265.282 170.363 265.204 170.252 265.151C170.14 265.097 170.018 265.068 169.895 265.066C169.771 265.064 169.648 265.089 169.535 265.139C169.422 265.189 169.321 265.263 169.239 265.356L166.139 268.876C165.991 269.046 165.917 269.268 165.932 269.493C165.947 269.718 166.05 269.928 166.22 270.077C166.389 270.225 166.611 270.301 166.836 270.287C167.062 270.274 167.272 270.171 167.422 270.003L169.026 268.182V272.749C169.026 272.975 169.116 273.192 169.276 273.352C169.437 273.512 169.654 273.602 169.88 273.602C170.107 273.602 170.324 273.512 170.485 273.352C170.645 273.192 170.735 272.975 170.735 272.749V268.3L172.119 269.981C172.263 270.156 172.471 270.267 172.696 270.289C172.922 270.311 173.147 270.242 173.322 270.098C173.497 269.955 173.607 269.747 173.629 269.522C173.651 269.297 173.583 269.072 173.439 268.897Z" fill="#F2F2F2"/>
<path d="M276.157 140.75C274.309 140.75 272.502 140.203 270.965 139.177C269.428 138.151 268.23 136.693 267.522 134.988C266.815 133.282 266.63 131.405 266.991 129.594C267.351 127.784 268.241 126.12 269.549 124.815C270.856 123.509 272.521 122.62 274.334 122.26C276.147 121.9 278.026 122.085 279.734 122.791C281.442 123.498 282.902 124.694 283.929 126.229C284.956 127.765 285.504 129.569 285.504 131.416C285.501 133.89 284.515 136.263 282.763 138.013C281.011 139.763 278.635 140.747 276.157 140.75ZM276.157 123.401C274.57 123.401 273.019 123.871 271.699 124.751C270.379 125.632 269.351 126.884 268.743 128.348C268.136 129.813 267.977 131.424 268.287 132.979C268.596 134.534 269.361 135.962 270.483 137.083C271.605 138.204 273.035 138.967 274.592 139.276C276.148 139.586 277.762 139.427 279.228 138.82C280.695 138.214 281.948 137.186 282.83 135.868C283.712 134.55 284.182 133.001 284.182 131.416C284.18 129.291 283.334 127.253 281.829 125.751C280.325 124.248 278.285 123.403 276.157 123.401Z" fill="#F2F2F2"/>
<path d="M279.816 130.979L276.918 127.459C276.839 127.363 276.741 127.286 276.629 127.232C276.518 127.179 276.396 127.15 276.272 127.148C276.148 127.146 276.026 127.17 275.912 127.22C275.799 127.27 275.698 127.344 275.616 127.437L272.517 130.957C272.369 131.128 272.294 131.349 272.309 131.574C272.324 131.799 272.428 132.009 272.597 132.158C272.767 132.307 272.988 132.383 273.214 132.369C273.439 132.355 273.65 132.253 273.8 132.084L275.404 130.263V134.83C275.404 135.056 275.494 135.274 275.654 135.434C275.814 135.594 276.031 135.683 276.258 135.683C276.485 135.683 276.702 135.594 276.862 135.434C277.022 135.274 277.112 135.056 277.112 134.83V130.382L278.497 132.063C278.64 132.238 278.848 132.348 279.073 132.37C279.299 132.392 279.524 132.324 279.699 132.18C279.874 132.036 279.985 131.829 280.007 131.604C280.029 131.379 279.96 131.154 279.816 130.979Z" fill="#F2F2F2"/>
<path d="M65.3849 132.831C63.5364 132.831 61.7294 132.284 60.1924 131.258C58.6554 130.233 57.4574 128.775 56.75 127.069C56.0426 125.363 55.8575 123.486 56.2182 121.676C56.5788 119.865 57.4689 118.202 58.776 116.896C60.0832 115.591 61.7485 114.702 63.5615 114.342C65.3745 113.981 67.2538 114.166 68.9616 114.873C70.6694 115.579 72.1291 116.776 73.1561 118.311C74.1831 119.846 74.7312 121.651 74.7312 123.497C74.7284 125.972 73.7428 128.344 71.9907 130.094C70.2385 131.844 67.8629 132.829 65.3849 132.831ZM65.3849 115.482C63.7978 115.482 62.2462 115.952 60.9265 116.833C59.6068 117.713 58.5783 118.965 57.9709 120.43C57.3635 121.894 57.2046 123.506 57.5142 125.06C57.8239 126.615 58.5882 128.043 59.7105 129.164C60.8328 130.285 62.2627 131.048 63.8193 131.358C65.376 131.667 66.9896 131.508 68.4559 130.902C69.9223 130.295 71.1756 129.268 72.0574 127.95C72.9391 126.632 73.4098 125.082 73.4098 123.497C73.4074 121.372 72.5612 119.335 71.0568 117.832C69.5523 116.33 67.5125 115.484 65.3849 115.482Z" fill="#F2F2F2"/>
<path d="M69.0438 123.06L66.1454 119.54C66.0667 119.444 65.9683 119.367 65.8568 119.313C65.7453 119.26 65.6234 119.231 65.4996 119.229C65.3759 119.227 65.2531 119.252 65.1399 119.302C65.0267 119.352 64.9257 119.426 64.8439 119.518L61.7443 123.039C61.5962 123.209 61.5215 123.431 61.5366 123.656C61.5517 123.881 61.6553 124.09 61.8248 124.239C61.9944 124.388 62.216 124.464 62.4414 124.45C62.6667 124.436 62.8774 124.334 63.0275 124.166L64.6311 122.344V126.911C64.6311 127.138 64.7211 127.355 64.8814 127.515C65.0416 127.675 65.2589 127.765 65.4855 127.765C65.712 127.765 65.9293 127.675 66.0896 127.515C66.2498 127.355 66.3398 127.138 66.3398 126.911V122.463L67.724 124.144C67.868 124.319 68.0755 124.429 68.301 124.451C68.5265 124.473 68.7516 124.405 68.9266 124.261C69.1016 124.117 69.2122 123.91 69.2342 123.685C69.2562 123.46 69.1878 123.235 69.0438 123.06Z" fill="#F2F2F2"/>
<path d="M140.047 18.6692C138.199 18.6692 136.391 18.1217 134.854 17.096C133.317 16.0703 132.12 14.6124 131.412 12.9068C130.705 11.2011 130.52 9.32424 130.88 7.5135C131.241 5.70277 132.131 4.03951 133.438 2.73404C134.745 1.42858 136.411 0.539546 138.224 0.179368C140.037 -0.180809 141.916 0.00403808 143.624 0.71055C145.332 1.41706 146.791 2.6135 147.818 4.14857C148.845 5.68363 149.393 7.48838 149.393 9.33458C149.391 11.8094 148.405 14.1821 146.653 15.932C144.901 17.682 142.525 18.6664 140.047 18.6692ZM140.047 1.31981C138.46 1.31981 136.908 1.78987 135.589 2.67055C134.269 3.55122 133.24 4.80296 132.633 6.26747C132.026 7.73198 131.867 9.34349 132.176 10.8982C132.486 12.4529 133.25 13.881 134.373 15.0019C135.495 16.1228 136.925 16.8861 138.481 17.1954C140.038 17.5046 141.652 17.3459 143.118 16.7393C144.584 16.1327 145.838 15.1054 146.719 13.7874C147.601 12.4693 148.072 10.9198 148.072 9.33458C148.07 7.20966 147.223 5.17243 145.719 3.66988C144.214 2.16732 142.175 1.32217 140.047 1.31981Z" fill="#F2F2F2"/>
<path d="M143.706 8.89804L140.807 5.37779C140.729 5.28231 140.63 5.20502 140.519 5.1513C140.407 5.09757 140.286 5.06869 140.162 5.06665C140.038 5.0646 139.915 5.08944 139.802 5.13945C139.689 5.18945 139.588 5.26343 139.506 5.35627L136.406 8.87651C136.258 9.04666 136.184 9.26847 136.199 9.49344C136.214 9.71842 136.317 9.92828 136.487 10.0772C136.656 10.2261 136.878 10.3019 137.103 10.2881C137.329 10.2743 137.54 10.172 137.69 10.0035L139.293 8.18219V12.7493C139.293 12.9756 139.383 13.1926 139.543 13.3526C139.704 13.5126 139.921 13.6025 140.148 13.6025C140.374 13.6025 140.591 13.5126 140.752 13.3526C140.912 13.1926 141.002 12.9756 141.002 12.7493V8.3008L142.386 9.982C142.53 10.1568 142.738 10.2673 142.963 10.2893C143.189 10.3112 143.414 10.2428 143.589 10.0991C143.764 9.95534 143.874 9.74805 143.896 9.52281C143.918 9.29758 143.85 9.07283 143.706 8.89804Z" fill="#F2F2F2"/>
<path d="M40.2773 202.121C38.4288 202.121 36.6217 201.573 35.0846 200.547C33.5476 199.522 32.3496 198.064 31.6422 196.358C30.9347 194.652 30.7496 192.775 31.1103 190.965C31.4709 189.154 32.3611 187.491 33.6682 186.185C34.9753 184.88 36.6407 183.991 38.4538 183.63C40.2669 183.27 42.1461 183.455 43.854 184.162C45.5618 184.868 47.0216 186.065 48.0486 187.6C49.0755 189.135 49.6237 190.94 49.6236 192.786C49.6208 195.261 48.6353 197.633 46.8831 199.383C45.1309 201.133 42.7553 202.118 40.2773 202.121ZM40.2773 184.771C38.6901 184.771 37.1386 185.241 35.8188 186.122C34.4991 187.002 33.4705 188.254 32.8631 189.718C32.2556 191.183 32.0967 192.795 32.4063 194.349C32.7159 195.904 33.4802 197.332 34.6025 198.453C35.7248 199.574 37.1547 200.337 38.7114 200.647C40.2681 200.956 41.8817 200.797 43.3481 200.191C44.8145 199.584 46.0678 198.557 46.9497 197.239C47.8315 195.921 48.3022 194.371 48.3022 192.786C48.2999 190.661 47.4536 188.624 45.9492 187.121C44.4448 185.619 42.405 184.773 40.2773 184.771Z" fill="white"/>
<path d="M43.9359 192.349L41.0375 188.829C40.9588 188.734 40.8603 188.656 40.7488 188.603C40.6374 188.549 40.5155 188.52 40.3917 188.518C40.268 188.516 40.1452 188.541 40.032 188.591C39.9188 188.641 39.8178 188.715 39.736 188.808L36.6364 192.328C36.4883 192.498 36.4136 192.72 36.4287 192.945C36.4438 193.17 36.5474 193.38 36.7169 193.528C36.8865 193.677 37.1081 193.753 37.3335 193.739C37.5588 193.726 37.7695 193.623 37.9195 193.455L39.5232 191.633V196.201C39.5232 196.427 39.6132 196.644 39.7734 196.804C39.9337 196.964 40.151 197.054 40.3776 197.054C40.6041 197.054 40.8214 196.964 40.9816 196.804C41.1419 196.644 41.2319 196.427 41.2319 196.201V191.752L42.6161 193.433C42.76 193.608 42.9676 193.719 43.1931 193.741C43.4186 193.763 43.6436 193.694 43.8187 193.55C43.9937 193.407 44.1043 193.199 44.1263 192.974C44.1483 192.749 44.0798 192.524 43.9359 192.349Z" fill="white"/>
<path d="M242.46 45.7249C240.611 45.7249 238.804 45.1775 237.267 44.1518C235.73 43.1261 234.532 41.6682 233.825 39.9625C233.117 38.2568 232.932 36.3799 233.293 34.5691C233.653 32.7583 234.544 31.095 235.851 29.7895C237.158 28.484 238.823 27.595 240.636 27.2348C242.449 26.8746 244.329 27.0595 246.037 27.766C247.744 28.4726 249.204 29.669 250.231 31.2042C251.258 32.7393 251.806 34.5441 251.806 36.3903C251.803 38.8651 250.818 41.2378 249.066 42.9878C247.314 44.7377 244.938 45.7221 242.46 45.7249ZM242.46 28.3752C240.873 28.3752 239.321 28.8452 238.001 29.7259C236.682 30.6066 235.653 31.8583 235.046 33.3228C234.438 34.7874 234.279 36.3989 234.589 37.9536C234.899 39.5084 235.663 40.9365 236.785 42.0575C237.907 43.1784 239.337 43.9418 240.894 44.2511C242.451 44.5604 244.064 44.4017 245.531 43.7951C246.997 43.1885 248.25 42.1612 249.132 40.8432C250.014 39.5251 250.485 37.9755 250.485 36.3903C250.482 34.2654 249.636 32.2281 248.132 30.7255C246.627 29.2229 244.588 28.3776 242.46 28.3752Z" fill="white"/>
<path d="M246.119 35.9538L243.221 32.4336C243.142 32.3381 243.043 32.2608 242.932 32.2071C242.82 32.1534 242.699 32.1245 242.575 32.1224C242.451 32.1204 242.328 32.1452 242.215 32.1952C242.102 32.2452 242.001 32.3192 241.919 32.4121L238.82 35.9323C238.671 36.1024 238.597 36.3243 238.612 36.5492C238.627 36.7742 238.731 36.9841 238.9 37.133C239.07 37.2819 239.291 37.3577 239.517 37.3439C239.742 37.3301 239.953 37.2278 240.103 37.0593L241.706 35.238V39.805C241.706 40.0313 241.796 40.2484 241.957 40.4084C242.117 40.5684 242.334 40.6583 242.561 40.6583C242.787 40.6583 243.005 40.5684 243.165 40.4084C243.325 40.2484 243.415 40.0313 243.415 39.805V35.3566L244.799 37.0378C244.943 37.2126 245.151 37.3231 245.376 37.3451C245.602 37.367 245.827 37.2986 246.002 37.1549C246.177 37.0111 246.287 36.8038 246.309 36.5786C246.331 36.3534 246.263 36.1286 246.119 35.9538Z" fill="white"/>
</g>
<defs>
<clipPath id="clip0_2211_171">
<rect width="441" height="389" fill="white" transform="translate(0.225098)"/>
</clipPath>
</defs>
</svg>
