<svg width="441" height="282" viewBox="0 0 441 282" fill="none" xmlns="http://www.w3.org/2000/svg">
<g clip-path="url(#clip0_2211_271)">
<path d="M411.229 280.972C405.528 277.158 402.658 269.904 402.545 263.047C402.507 260.747 403.087 258.082 405.147 257.059C405.737 256.766 406.396 256.642 407.052 256.7C407.707 256.758 408.335 256.995 408.864 257.387C409.393 257.778 409.804 258.308 410.051 258.918C410.299 259.528 410.373 260.195 410.266 260.844C411.029 258.607 412.02 256.454 413.223 254.419C414.241 252.696 415.671 250.903 417.666 250.74C419.98 250.55 421.913 252.797 422.241 255.096C422.57 257.394 421.733 259.682 420.911 261.853C421.143 260.87 421.618 259.96 422.293 259.208C422.968 258.455 423.82 257.884 424.773 257.547C425.725 257.209 426.747 257.115 427.745 257.275C428.743 257.434 429.685 257.841 430.485 258.459C432.748 260.205 433.494 263.421 432.924 266.222C432.355 269.024 430.683 271.475 428.834 273.655C426.666 276.212 424.155 278.548 421.149 280.033C418.143 281.517 414.589 282.085 411.391 281.078L411.229 280.972Z" fill="#F2F2F2"/>
<path d="M333.261 189.142C334.045 188.751 334.735 188.194 335.28 187.508C335.826 186.823 336.215 186.026 336.419 185.174C336.623 184.322 336.638 183.435 336.463 182.577C336.288 181.718 335.926 180.909 335.404 180.205L349.371 112.398L336.337 112.226L326.638 179.173C325.514 180.129 324.779 181.463 324.574 182.924C324.368 184.384 324.705 185.87 325.521 187.099C326.338 188.328 327.576 189.214 329.003 189.591C330.429 189.967 331.944 189.808 333.261 189.142Z" fill="#FFB8B8"/>
<path d="M396.746 185.621C397.386 185.023 397.887 184.291 398.214 183.478C398.541 182.665 398.686 181.791 398.638 180.916C398.59 180.041 398.351 179.187 397.938 178.414C397.524 177.642 396.947 176.969 396.245 176.444L390.246 107.474L377.707 111.035L387.55 177.961C386.746 179.198 386.423 180.686 386.644 182.145C386.864 183.604 387.612 184.931 388.745 185.875C389.879 186.819 391.319 187.315 392.794 187.268C394.268 187.221 395.675 186.635 396.746 185.621Z" fill="#FFB8B8"/>
<path d="M356.525 274.576L349.684 274.575L346.43 248.193L356.526 248.194L356.525 274.576Z" fill="#FFB8B8"/>
<path d="M344.798 272.621H357.99V280.927H336.492C336.492 278.724 337.367 276.611 338.925 275.054C340.483 273.496 342.595 272.621 344.798 272.621Z" fill="#2F2E41"/>
<path d="M387.212 274.576L380.371 274.575L377.117 248.193L387.213 248.194L387.212 274.576Z" fill="#FFB8B8"/>
<path d="M375.485 272.621H388.677V280.927H367.179C367.179 278.724 368.054 276.611 369.612 275.054C371.17 273.496 373.282 272.621 375.485 272.621Z" fill="#2F2E41"/>
<path d="M358.297 86.0806C365.865 86.0806 372.001 79.9457 372.001 72.378C372.001 64.8102 365.865 58.6753 358.297 58.6753C350.729 58.6753 344.593 64.8102 344.593 72.378C344.593 79.9457 350.729 86.0806 358.297 86.0806Z" fill="#FFB8B8"/>
<path d="M377.562 257.929C377.004 257.926 376.464 257.731 376.034 257.376C375.604 257.022 375.31 256.529 375.201 255.982L365.937 208.055C365.852 207.616 365.613 207.222 365.262 206.944C364.912 206.667 364.474 206.524 364.027 206.542C363.58 206.56 363.155 206.737 362.828 207.042C362.501 207.347 362.294 207.759 362.245 208.203L357.057 254.887C356.996 255.457 356.732 255.986 356.314 256.377C355.896 256.769 355.351 256.998 354.778 257.021L346.997 257.375C346.681 257.391 346.365 257.344 346.067 257.236C345.769 257.128 345.496 256.962 345.264 256.746C345.031 256.533 344.841 256.275 344.708 255.988C344.575 255.701 344.5 255.391 344.488 255.074L341.504 182.96C341.488 182.596 341.556 182.233 341.701 181.899C341.847 181.565 342.068 181.269 342.346 181.033L344.071 179.561C344.506 179.191 345.059 178.987 345.63 178.987H385.958C386.595 178.988 387.206 179.241 387.656 179.691C388.107 180.142 388.36 180.752 388.361 181.389V255.161C388.362 255.78 388.123 256.376 387.695 256.824C387.266 257.271 386.681 257.536 386.062 257.561L377.665 257.927C377.63 257.928 377.596 257.929 377.562 257.929Z" fill="#2F2E41"/>
<path d="M356.908 189.479C350.388 189.48 344.641 187.742 341.74 182.676C341.497 182.258 341.383 181.779 341.413 181.297L345.058 125.575C345.088 125.125 344.953 124.679 344.68 124.32L334.45 110.909C334.259 110.657 334.118 110.371 334.038 110.065C333.957 109.759 333.937 109.441 333.98 109.128C334.023 108.814 334.127 108.513 334.286 108.24C334.446 107.967 334.658 107.728 334.91 107.537L350.254 95.9132C350.577 95.6683 350.811 95.326 350.923 94.9371L351.37 93.3729C351.508 92.8857 351.797 92.4547 352.196 92.142C352.594 91.8292 353.082 91.6507 353.588 91.6319L364.848 91.1986C365.223 91.186 365.596 91.2608 365.938 91.4171C366.28 91.5733 366.58 91.8068 366.816 92.0991L368.015 93.5966C368.167 93.7878 368.356 93.947 368.57 94.0653L387.401 104.47C387.772 104.676 388.083 104.977 388.301 105.342C388.519 105.707 388.636 106.123 388.641 106.548L388.642 106.581L388.634 106.613C384.244 124.914 384.491 148.045 389.411 179.411C389.424 179.889 389.294 180.36 389.037 180.764C388.781 181.168 388.409 181.486 387.971 181.678C383.895 183.443 369.061 189.479 356.908 189.479Z" fill="#FF8563"/>
<path d="M345.442 132.002H332.688C332.361 132.002 332.037 131.936 331.737 131.807C331.436 131.678 331.165 131.488 330.941 131.25C330.716 131.013 330.542 130.732 330.43 130.424C330.318 130.117 330.27 129.79 330.289 129.463C330.479 126.214 330.853 120.036 331.228 115.163C331.768 108.151 338.639 104.7 338.708 104.666L338.842 104.6L343.481 107.544L347.798 129.129C347.868 129.477 347.859 129.837 347.773 130.182C347.687 130.526 347.525 130.848 347.3 131.123C347.074 131.397 346.791 131.619 346.47 131.771C346.148 131.923 345.797 132.002 345.442 132.002Z" fill="#FF8563"/>
<path d="M380.389 130.812C380.053 130.81 379.72 130.737 379.414 130.598C379.107 130.46 378.833 130.259 378.609 130.007C378.385 129.756 378.216 129.461 378.113 129.141C378.01 128.82 377.976 128.482 378.012 128.147L380.366 106.495L384.913 103.165L385.016 103.176C385.065 103.182 389.909 103.787 392.079 109.212C393.625 113.075 395.985 120.214 397.254 124.126C397.356 124.441 397.392 124.773 397.36 125.102C397.327 125.431 397.227 125.749 397.066 126.038C396.904 126.326 396.685 126.578 396.422 126.778C396.159 126.977 395.857 127.121 395.536 127.198L380.969 130.741C380.779 130.788 380.584 130.812 380.389 130.812Z" fill="#FF8563"/>
<path d="M358.609 86.1762C361.54 81.5395 357.881 68.7758 349.907 68.4427C348.067 68.3659 347.36 65.6874 346.734 63.9547C346.415 62.9502 346.331 61.886 346.487 60.8437C346.642 59.8014 347.034 58.8085 347.633 57.9409C348.85 56.2121 350.527 54.8578 352.473 54.031C354.663 53.0252 357.043 52.5022 359.452 52.4973C361.861 52.4925 364.244 53.006 366.437 54.0029C368.63 54.9999 370.584 56.457 372.164 58.2753C373.745 60.0937 374.916 62.2307 375.597 64.5415C376.279 66.8522 376.456 69.2825 376.115 71.6675C375.775 74.0525 374.925 76.3364 373.624 78.3641C372.323 80.3918 370.601 82.1159 368.575 83.4195C366.548 84.723 364.266 85.5755 361.881 85.919L358.609 86.1762Z" fill="#2F2E41"/>
<path d="M275.851 0H4.13072C3.09524 0.00114886 2.10249 0.412975 1.37029 1.14512C0.638096 1.87726 0.226247 2.86992 0.225098 3.90532V188.013C0.226248 189.049 0.638097 190.041 1.37029 190.773C2.10249 191.506 3.09524 191.917 4.13072 191.919H275.851C276.886 191.917 277.879 191.506 278.611 190.773C279.343 190.041 279.755 189.049 279.756 188.013V3.90532C279.755 2.86992 279.343 1.87726 278.611 1.14512C277.879 0.412975 276.886 0.00114886 275.851 0ZM278.64 188.013C278.64 188.753 278.346 189.462 277.823 189.985C277.3 190.508 276.59 190.802 275.851 190.803H4.13072C3.39093 190.802 2.68152 190.508 2.15841 189.985C1.63529 189.462 1.34129 188.753 1.34099 188.013V3.90532C1.34129 3.16558 1.63529 2.45624 2.15841 1.93316C2.68152 1.41009 3.39093 1.1161 4.13072 1.11581H275.851C276.59 1.1161 277.3 1.41009 277.823 1.93316C278.346 2.45624 278.64 3.16558 278.64 3.90532V188.013Z" fill="#3F3D56"/>
<path d="M279.198 15.6436H0.783203V16.7594H279.198V15.6436Z" fill="#3F3D56"/>
<path d="M10.2681 11.7161C12.117 11.7161 13.6158 10.2174 13.6158 8.36866C13.6158 6.51993 12.117 5.02124 10.2681 5.02124C8.41922 5.02124 6.92041 6.51993 6.92041 8.36866C6.92041 10.2174 8.41922 11.7161 10.2681 11.7161Z" fill="#3F3D56"/>
<path d="M19.8926 11.7161C21.7415 11.7161 23.2403 10.2174 23.2403 8.36866C23.2403 6.51993 21.7415 5.02124 19.8926 5.02124C18.0437 5.02124 16.5449 6.51993 16.5449 8.36866C16.5449 10.2174 18.0437 11.7161 19.8926 11.7161Z" fill="#3F3D56"/>
<path d="M29.5171 11.7161C31.366 11.7161 32.8648 10.2174 32.8648 8.36866C32.8648 6.51993 31.366 5.02124 29.5171 5.02124C27.6682 5.02124 26.1694 6.51993 26.1694 8.36866C26.1694 10.2174 27.6682 11.7161 29.5171 11.7161Z" fill="#3F3D56"/>
<path d="M225.539 53.8179H52.5754C50.2818 53.8179 48.0821 52.9069 46.4602 51.2852C44.8384 49.6634 43.9272 47.4639 43.9272 45.1704C43.9272 42.877 44.8384 40.6775 46.4602 39.0557C48.0821 37.434 50.2818 36.5229 52.5754 36.5229H225.539C227.832 36.5229 230.032 37.434 231.654 39.0557C233.276 40.6775 234.187 42.877 234.187 45.1704C234.187 47.4639 233.276 49.6634 231.654 51.2852C230.032 52.9069 227.832 53.8179 225.539 53.8179ZM52.5754 37.6388C50.5777 37.6388 48.6619 38.4323 47.2493 39.8447C45.8367 41.2572 45.0431 43.1729 45.0431 45.1704C45.0431 47.168 45.8367 49.0837 47.2493 50.4962C48.6619 51.9086 50.5777 52.7021 52.5754 52.7021H225.539C227.536 52.7021 229.452 51.9086 230.865 50.4962C232.277 49.0837 233.071 47.168 233.071 45.1704C233.071 43.1729 232.277 41.2572 230.865 39.8447C229.452 38.4323 227.536 37.6388 225.539 37.6388H52.5754Z" fill="#3F3D56"/>
<path d="M97.2109 97.8921H63.7341C61.4405 97.8921 59.2408 96.9811 57.6189 95.3594C55.9971 93.7376 55.0859 91.5381 55.0859 89.2447C55.0859 86.9512 55.9971 84.7517 57.6189 83.13C59.2408 81.5082 61.4405 80.5972 63.7341 80.5972H97.2109C99.5045 80.5972 101.704 81.5082 103.326 83.13C104.948 84.7517 105.859 86.9512 105.859 89.2447C105.859 91.5381 104.948 93.7376 103.326 95.3594C101.704 96.9811 99.5045 97.8921 97.2109 97.8921ZM63.7341 81.713C61.7364 81.713 59.8206 82.5065 58.408 83.919C56.9954 85.3314 56.2018 87.2471 56.2018 89.2447C56.2018 91.2422 56.9954 93.1579 58.408 94.5704C59.8206 95.9828 61.7364 96.7763 63.7341 96.7763H97.2109C99.2086 96.7763 101.124 95.9828 102.537 94.5704C103.95 93.1579 104.743 91.2422 104.743 89.2447C104.743 87.2471 103.95 85.3314 102.537 83.919C101.124 82.5065 99.2086 81.713 97.2109 81.713H63.7341Z" fill="#3F3D56"/>
<path d="M97.2109 126.903H63.7341C61.4405 126.903 59.2408 125.992 57.6189 124.37C55.9971 122.749 55.0859 120.549 55.0859 118.256C55.0859 115.962 55.9971 113.763 57.6189 112.141C59.2408 110.519 61.4405 109.608 63.7341 109.608H97.2109C99.5045 109.608 101.704 110.519 103.326 112.141C104.948 113.763 105.859 115.962 105.859 118.256C105.859 120.549 104.948 122.749 103.326 124.37C101.704 125.992 99.5045 126.903 97.2109 126.903ZM63.7341 110.724C61.7364 110.724 59.8206 111.517 58.408 112.93C56.9954 114.342 56.2018 116.258 56.2018 118.256C56.2018 120.253 56.9954 122.169 58.408 123.581C59.8206 124.994 61.7364 125.787 63.7341 125.787H97.2109C99.2086 125.787 101.124 124.994 102.537 123.581C103.95 122.169 104.743 120.253 104.743 118.256C104.743 116.258 103.95 114.342 102.537 112.93C101.124 111.517 99.2086 110.724 97.2109 110.724H63.7341Z" fill="#3F3D56"/>
<path d="M97.2109 155.914H63.7341C61.4405 155.914 59.2408 155.003 57.6189 153.381C55.9971 151.76 55.0859 149.56 55.0859 147.267C55.0859 144.973 55.9971 142.774 57.6189 141.152C59.2408 139.53 61.4405 138.619 63.7341 138.619H97.2109C99.5045 138.619 101.704 139.53 103.326 141.152C104.948 142.774 105.859 144.973 105.859 147.267C105.859 149.56 104.948 151.76 103.326 153.381C101.704 155.003 99.5045 155.914 97.2109 155.914ZM63.7341 139.735C61.7364 139.735 59.8206 140.528 58.408 141.941C56.9954 143.353 56.2018 145.269 56.2018 147.267C56.2018 149.264 56.9954 151.18 58.408 152.592C59.8206 154.005 61.7364 154.798 63.7341 154.798H97.2109C99.2086 154.798 101.124 154.005 102.537 152.592C103.95 151.18 104.743 149.264 104.743 147.267C104.743 145.269 103.95 143.353 102.537 141.941C101.124 140.528 99.2086 139.735 97.2109 139.735H63.7341Z" fill="#3F3D56"/>
<path d="M102.233 49.0758H55.3651C54.3293 49.0758 53.3359 48.6643 52.6034 47.9319C51.871 47.1996 51.4595 46.2062 51.4595 45.1705C51.4595 44.1347 51.871 43.1414 52.6034 42.409C53.3359 41.6766 54.3293 41.2651 55.3651 41.2651H102.233C103.268 41.2651 104.262 41.6766 104.994 42.409C105.727 43.1414 106.138 44.1347 106.138 45.1705C106.138 46.2062 105.727 47.1996 104.994 47.9319C104.262 48.6643 103.268 49.0758 102.233 49.0758Z" fill="#FF8563"/>
<path d="M219.681 47.1229C218.908 47.1229 218.153 46.8939 217.511 46.4647C216.868 46.0356 216.368 45.4257 216.072 44.7121C215.777 43.9985 215.699 43.2132 215.85 42.4557C216.001 41.6981 216.373 41.0023 216.919 40.4561C217.465 39.9099 218.161 39.538 218.919 39.3873C219.676 39.2366 220.461 39.314 221.175 39.6095C221.889 39.9051 222.499 40.4057 222.928 41.0479C223.357 41.6901 223.586 42.4452 223.586 43.2176C223.585 44.253 223.173 45.2456 222.441 45.9778C221.709 46.7099 220.716 47.1217 219.681 47.1229ZM219.681 40.4281C219.129 40.4281 218.589 40.5917 218.131 40.8982C217.672 41.2047 217.314 41.6403 217.103 42.1501C216.892 42.6598 216.837 43.2207 216.944 43.7618C217.052 44.3029 217.318 44.7999 217.708 45.1901C218.098 45.5802 218.595 45.8458 219.136 45.9535C219.677 46.0611 220.238 46.0059 220.748 45.7947C221.258 45.5836 221.694 45.2261 222 44.7673C222.307 44.3086 222.47 43.7693 222.47 43.2176C222.469 42.478 222.175 41.769 221.652 41.246C221.129 40.7231 220.42 40.4289 219.681 40.4281Z" fill="#3F3D56"/>
<path d="M225.722 50.6559C225.649 50.656 225.576 50.6416 225.509 50.6135C225.441 50.5855 225.38 50.5443 225.328 50.4924L221.408 46.5724C221.356 46.5206 221.315 46.4591 221.287 46.3914C221.259 46.3238 221.244 46.2512 221.244 46.178C221.244 46.1047 221.259 46.0322 221.287 45.9645C221.315 45.8968 221.356 45.8353 221.408 45.7835C221.459 45.7317 221.521 45.6906 221.589 45.6626C221.656 45.6345 221.729 45.6201 221.802 45.6201C221.875 45.6201 221.948 45.6345 222.016 45.6626C222.083 45.6906 222.145 45.7317 222.197 45.7835L226.117 49.7035C226.195 49.7815 226.248 49.881 226.269 49.9892C226.291 50.0974 226.28 50.2095 226.238 50.3115C226.195 50.4134 226.124 50.5005 226.032 50.5618C225.94 50.6231 225.833 50.6559 225.722 50.6559Z" fill="#3F3D56"/>
<path d="M217.448 94.5447H198.478C197.072 94.5447 195.724 93.9863 194.73 92.9924C193.736 91.9984 193.178 90.6503 193.178 89.2447C193.178 87.839 193.736 86.4909 194.73 85.4969C195.724 84.503 197.072 83.9446 198.478 83.9446H217.448C218.854 83.9446 220.202 84.503 221.196 85.4969C222.19 86.4909 222.749 87.839 222.749 89.2447C222.749 90.6503 222.19 91.9984 221.196 92.9924C220.202 93.9863 218.854 94.5447 217.448 94.5447Z" fill="#FF8563"/>
<path d="M217.448 123.556H198.478C197.072 123.556 195.724 122.997 194.73 122.003C193.736 121.009 193.178 119.661 193.178 118.256C193.178 116.85 193.736 115.502 194.73 114.508C195.724 113.514 197.072 112.956 198.478 112.956H217.448C218.854 112.956 220.202 113.514 221.196 114.508C222.19 115.502 222.749 116.85 222.749 118.256C222.749 119.661 222.19 121.009 221.196 122.003C220.202 122.997 218.854 123.556 217.448 123.556Z" fill="#FF8563"/>
<path d="M217.448 152.567H198.478C197.072 152.567 195.724 152.008 194.73 151.014C193.736 150.02 193.178 148.672 193.178 147.267C193.178 145.861 193.736 144.513 194.73 143.519C195.724 142.525 197.072 141.967 198.478 141.967H217.448C218.854 141.967 220.202 142.525 221.196 143.519C222.19 144.513 222.749 145.861 222.749 147.267C222.749 148.672 222.19 150.02 221.196 151.014C220.202 152.008 218.854 152.567 217.448 152.567Z" fill="#FF8563"/>
<path d="M439.667 282H301.296C301.148 282 301.006 281.941 300.902 281.837C300.797 281.732 300.738 281.59 300.738 281.442C300.738 281.294 300.797 281.152 300.902 281.048C301.006 280.943 301.148 280.884 301.296 280.884H439.667C439.815 280.884 439.957 280.943 440.061 281.048C440.166 281.152 440.225 281.294 440.225 281.442C440.225 281.59 440.166 281.732 440.061 281.837C439.957 281.941 439.815 282 439.667 282Z" fill="#3F3D56"/>
</g>
<defs>
<clipPath id="clip0_2211_271">
<rect width="440" height="282" fill="white" transform="translate(0.225098)"/>
</clipPath>
</defs>
</svg>
