<svg width="442" height="353" viewBox="0 0 442 353" fill="none" xmlns="http://www.w3.org/2000/svg">
<g clip-path="url(#clip0_2211_2)">
<mask id="mask0_2211_2" style="mask-type:luminance" maskUnits="userSpaceOnUse" x="0" y="0" width="442" height="353">
<path d="M441.225 0H0.225098V353H441.225V0Z" fill="white"/>
</mask>
<g mask="url(#mask0_2211_2)">
<path d="M11.1846 352.142C11.1846 352.617 11.5673 353 12.0438 353H440.366C440.842 353 441.225 352.617 441.225 352.142C441.225 351.666 440.842 351.283 440.366 351.283H12.0438C11.5673 351.283 11.1846 351.666 11.1846 352.142Z" fill="#2F2E43"/>
<path d="M233.293 267.466C232.118 274.586 225.914 280.034 218.457 280.034C211.001 280.034 204.797 274.586 203.622 267.466H165.664V349.618H271.251V267.466H233.293Z" fill="#B6B3C5"/>
<path d="M177.942 349.312H167.506V351.151H177.942V349.312Z" fill="#B6B3C5"/>
<path d="M270.33 349.618H259.894V351.458H270.33V349.618Z" fill="#B6B3C5"/>
<path d="M430.804 269.612H6.11146C2.86568 269.612 0.225098 266.975 0.225098 263.733V21.6777C0.225098 18.4363 2.86568 15.7991 6.11146 15.7991H430.804C434.049 15.7991 436.689 18.4363 436.689 21.6777V263.733C436.689 266.975 434.049 269.612 430.804 269.612Z" fill="#2F2E41"/>
<path d="M426.56 26.2213H10.9678V260.416H426.56V26.2213Z" fill="white"/>
<path d="M377.186 116.161H354.509C352.539 116.161 350.936 114.561 350.936 112.593C350.936 110.625 352.539 109.023 354.509 109.023H377.186C379.156 109.023 380.76 110.625 380.76 112.593C380.76 114.561 379.156 116.161 377.186 116.161Z" fill="#D1D1D2"/>
<path d="M403.265 116.161H392.683C390.712 116.161 389.109 114.561 389.109 112.593C389.109 110.625 390.712 109.023 392.683 109.023H403.265C405.235 109.023 406.839 110.625 406.839 112.593C406.839 114.561 405.235 116.161 403.265 116.161Z" fill="#D1D1D2"/>
<path d="M150.142 118.887H81.1176C77.5941 118.887 74.7275 116.025 74.7275 112.505C74.7275 108.986 77.5941 106.124 81.1176 106.124H150.142C153.665 106.124 156.532 108.986 156.532 112.505C156.532 116.025 153.665 118.887 150.142 118.887Z" fill="#FF8563"/>
<path d="M112.719 135.913H79.4543C77.3066 135.913 75.5591 134.168 75.5591 132.023C75.5591 129.878 77.3066 128.133 79.4543 128.133H112.719C114.867 128.133 116.615 129.878 116.615 132.023C116.615 134.168 114.867 135.913 112.719 135.913Z" fill="#D1D1D2"/>
<path d="M296.09 151.278H78.6228C76.475 151.278 74.7275 149.533 74.7275 147.388C74.7275 145.243 76.475 143.498 78.6228 143.498H296.09C298.238 143.498 299.985 145.243 299.985 147.388C299.985 149.533 298.238 151.278 296.09 151.278Z" fill="#D1D1D2"/>
<path d="M277.379 161.66H78.6228C76.475 161.66 74.7275 159.914 74.7275 157.769C74.7275 155.625 76.475 153.879 78.6228 153.879H277.379C279.527 153.879 281.274 155.625 281.274 157.769C281.274 159.914 279.527 161.66 277.379 161.66Z" fill="#D1D1D2"/>
<path d="M402.614 311.516L392.639 321.977L382.008 312.162L391.983 301.701L402.614 311.516Z" fill="#ED9DA0"/>
<path d="M410.583 322.231L389.378 344.467C387.567 346.368 385.302 347.869 382.833 348.809L376.921 351.06C375.698 351.525 374.291 351.256 373.335 350.373C372.214 349.338 371.931 347.68 372.645 346.342L378.332 335.689L384.4 314.085L384.465 314.125C386.116 315.14 388.62 316.664 388.799 316.728C391.941 316.84 394.191 316.05 395.485 314.383C397.744 311.475 396.311 306.833 396.296 306.786L396.285 306.751L396.314 306.727C396.972 306.165 397.666 305.94 398.374 306.058C399.881 306.31 400.958 307.999 401.116 308.259C402.528 308.2 406.867 311.593 407.217 311.868C409.346 311.863 410.908 312.366 411.858 313.368C412.688 314.243 413.05 315.484 412.932 317.059C412.791 318.953 411.957 320.79 410.583 322.231Z" fill="#090814"/>
<path d="M391.099 323.56H376.52V337.906H391.099V323.56Z" fill="#ED9DA0"/>
<path d="M388.611 350.954H357.621C354.972 350.954 352.31 350.356 349.924 349.227L344.211 346.526C343.03 345.967 342.266 344.772 342.266 343.483C342.266 341.971 343.301 340.632 344.782 340.229L356.569 337.021L376.731 326.592L376.747 326.667C377.124 328.546 377.708 331.385 377.782 331.558C379.85 333.888 381.974 334.962 384.096 334.751C387.796 334.382 390.256 330.176 390.28 330.134L390.299 330.102L390.337 330.105C391.204 330.194 391.845 330.537 392.243 331.127C393.086 332.38 392.572 334.309 392.487 334.6C393.498 335.574 393.951 341.009 393.986 341.447C395.448 342.972 396.143 344.437 396.051 345.803C395.97 346.998 395.297 348.107 394.051 349.1C392.55 350.295 390.618 350.954 388.611 350.954Z" fill="#090814"/>
<path d="M392.829 142.897L341.169 142.922L323.95 250.206L375.61 311.526L392.829 296.196L352.004 250.206L392.829 142.897Z" fill="#090814"/>
<path d="M362.295 158.712L392.829 142.897V326.856L375.609 327.328L362.295 158.712Z" fill="#090814"/>
<path d="M331.71 185.919L332.074 169.172L322.284 168.96L321.92 185.707C320.094 187.4 318.888 190.032 318.823 193.015C318.71 198.235 322.124 202.542 326.449 202.636C330.776 202.73 334.374 198.574 334.487 193.354C334.552 190.371 333.461 187.69 331.71 185.919Z" fill="#ED9DA0"/>
<path d="M378.136 22.3739C378.136 22.3739 392.19 22.3435 386.939 8.8199C381.689 -4.70376 371.914 1.35152 371.914 1.35152C371.914 1.35152 367.795 3.52448 368.644 8.37263" fill="#090814"/>
<path d="M379.542 28.8607C379.542 18.492 371.126 10.0865 360.743 10.0865C350.361 10.0865 341.944 18.492 341.944 28.8607C341.944 37.2697 347.481 44.3866 355.111 46.7767L358.745 70.7626L377.272 55.3441C377.272 55.3441 373.27 50.253 371.123 44.5123C376.196 41.1501 379.542 35.3967 379.542 28.8607Z" fill="#ED9DA0"/>
<path d="M369.775 44.7205C369.775 44.7205 372.272 35.1619 368.19 30.7668C364.118 26.3817 363.591 33.2047 363.591 33.2047L360.652 32.5667C360.652 32.5667 361.164 25.9314 355.414 24.783L359.119 16.8717C359.119 16.8717 344.934 19.6224 344.543 18.2503C341.466 7.45367 370.815 -1.7692 378.923 14.7024C391.533 40.3213 369.775 44.7205 369.775 44.7205Z" fill="#090814"/>
<path d="M353.171 61.4457C339.523 64.1091 329.28 75.4578 328.037 89.29L319.542 183.887H334.449L353.171 61.4457Z" fill="#FF8563"/>
<path d="M339.075 136.815L336.754 163.524L399.775 145.012L392.096 125.708L406.395 92.9154L377.206 51.1323L353.904 52.719L344.901 64.3548" fill="#FF8563"/>
<path d="M390.469 162.18L399.259 147.915L390.919 142.789L382.129 157.054C379.696 157.593 377.323 159.255 375.758 161.796C373.017 166.243 373.784 171.684 377.469 173.948C381.153 176.213 386.362 174.444 389.102 169.998C390.667 167.456 391.084 164.592 390.469 162.18Z" fill="#ED9DA0"/>
<path d="M372.44 51.661L377.522 51.4504L386.21 58.0078C396.504 59.7611 399.489 60.2526 402.644 67.0439C403.969 69.8976 404.848 72.9377 405.339 76.045L412.689 122.534L394.215 166.962L381.972 153.21L395.059 118.475L392.886 110.167" fill="#FF8563"/>
</g>
</g>
<defs>
<clipPath id="clip0_2211_2">
<rect width="441" height="353" fill="white" transform="translate(0.225098)"/>
</clipPath>
</defs>
</svg>
