<svg width="491" height="393" viewBox="0 0 491 393" fill="none" xmlns="http://www.w3.org/2000/svg">
<g clip-path="url(#clip0_2104_9)">
<path d="M12.2021 392.045C12.2021 392.574 12.6282 393 13.1587 393H490.043C490.574 393 491 392.574 491 392.045C491 391.515 490.574 391.089 490.043 391.089H13.1587C12.6282 391.089 12.2021 391.515 12.2021 392.045Z" fill="#2F2E43"/>
<path d="M259.493 297.774C258.184 305.7 251.277 311.766 242.975 311.766C234.673 311.766 227.766 305.7 226.457 297.774H184.196V389.235H301.754V297.774L259.493 297.774Z" fill="#B6B3C5"/>
<path d="M197.866 388.894H186.247V390.941H197.866V388.894Z" fill="#B6B3C5"/>
<path d="M300.729 389.235H289.11V391.283H300.729V389.235Z" fill="#B6B3C5"/>
<path d="M479.397 300.163H6.55375C2.93997 300.163 0 297.227 0 293.618V24.1342C0 20.5255 2.93997 17.5894 6.55375 17.5894H479.397C483.01 17.5894 485.95 20.5255 485.95 24.1342V293.618C485.95 297.227 483.01 300.163 479.397 300.163Z" fill="#2F2E41"/>
<path d="M474.673 29.1926H11.9609V289.925H474.673V29.1926Z" fill="white"/>
<path d="M419.7 129.324H394.452C392.259 129.324 390.474 127.542 390.474 125.351C390.474 123.16 392.259 121.377 394.452 121.377H419.7C421.894 121.377 423.679 123.16 423.679 125.351C423.679 127.542 421.894 129.324 419.7 129.324Z" fill="#D1D1D2"/>
<path d="M448.736 129.324H436.954C434.76 129.324 432.975 127.542 432.975 125.351C432.975 123.16 434.76 121.377 436.954 121.377H448.736C450.93 121.377 452.715 123.16 452.715 125.351C452.715 127.542 450.93 129.324 448.736 129.324Z" fill="#D1D1D2"/>
<path d="M166.914 132.359H90.0643C86.1413 132.359 82.9497 129.172 82.9497 125.254C82.9497 121.336 86.1413 118.149 90.0643 118.149H166.914C170.837 118.149 174.029 121.336 174.029 125.254C174.029 129.172 170.837 132.359 166.914 132.359Z" fill="#FF8563"/>
<path d="M125.249 151.314H88.2124C85.8211 151.314 83.8755 149.371 83.8755 146.983C83.8755 144.595 85.8211 142.652 88.2124 142.652H125.249C127.64 142.652 129.586 144.595 129.586 146.983C129.586 149.371 127.64 151.314 125.249 151.314Z" fill="#D1D1D2"/>
<path d="M329.41 168.42H87.2866C84.8953 168.42 82.9497 166.477 82.9497 164.089C82.9497 161.701 84.8953 159.758 87.2866 159.758H329.41C331.801 159.758 333.747 161.701 333.747 164.089C333.747 166.477 331.801 168.42 329.41 168.42Z" fill="#D1D1D2"/>
<path d="M308.577 179.978H87.2866C84.8953 179.978 82.9497 178.035 82.9497 175.647C82.9497 173.259 84.8953 171.316 87.2866 171.316H308.577C310.969 171.316 312.914 173.259 312.914 175.647C312.914 178.035 310.969 179.978 308.577 179.978Z" fill="#D1D1D2"/>
<path d="M448.012 346.815L436.906 358.462L425.069 347.534L436.175 335.888L448.012 346.815Z" fill="#ED9DA0"/>
<path d="M456.884 358.744L433.275 383.5C431.258 385.616 428.737 387.287 425.987 388.334L419.405 390.84C418.044 391.358 416.477 391.058 415.413 390.075C414.165 388.923 413.849 387.077 414.645 385.587L420.976 373.727L427.732 349.675L427.805 349.72C429.643 350.85 432.431 352.546 432.63 352.618C436.128 352.742 438.633 351.863 440.074 350.007C442.589 346.77 440.994 341.601 440.977 341.549L440.965 341.51L440.997 341.483C441.73 340.858 442.502 340.607 443.291 340.739C444.968 341.019 446.167 342.9 446.343 343.189C447.916 343.123 452.747 346.901 453.136 347.207C455.507 347.201 457.246 347.762 458.303 348.877C459.227 349.851 459.63 351.233 459.499 352.986C459.342 355.095 458.414 357.14 456.884 358.744Z" fill="#090814"/>
<path d="M435.19 360.224H418.958V376.195H435.19V360.224Z" fill="#ED9DA0"/>
<path d="M432.42 390.722H397.917C394.968 390.722 392.004 390.057 389.347 388.8L382.986 385.792C381.671 385.17 380.821 383.84 380.821 382.405C380.821 380.721 381.973 379.231 383.622 378.782L396.745 375.21L419.194 363.6L419.211 363.683C419.631 365.775 420.281 368.936 420.364 369.128C422.666 371.722 425.031 372.918 427.393 372.683C431.513 372.272 434.252 367.59 434.279 367.543L434.3 367.507L434.342 367.511C435.307 367.61 436.021 367.992 436.464 368.649C437.403 370.044 436.83 372.191 436.736 372.515C437.861 373.599 438.366 379.65 438.405 380.138C440.033 381.836 440.806 383.467 440.704 384.988C440.614 386.318 439.865 387.553 438.477 388.658C436.806 389.989 434.655 390.722 432.42 390.722Z" fill="#090814"/>
<path d="M437.117 159.089L379.6 159.117L360.428 278.558L417.945 346.826L437.117 329.759L391.663 278.558L437.117 159.089Z" fill="#090814"/>
<path d="M403.121 176.696L437.117 159.089V363.893L417.945 364.419L403.121 176.696Z" fill="#090814"/>
<path d="M369.068 206.986L369.473 188.342L358.573 188.106L358.168 206.75C356.135 208.635 354.792 211.565 354.72 214.886C354.594 220.698 358.395 225.493 363.211 225.598C368.028 225.702 372.034 221.075 372.16 215.264C372.232 211.943 371.018 208.958 369.068 206.986Z" fill="#ED9DA0"/>
<path d="M420.758 24.9092C420.758 24.9092 436.405 24.8754 430.559 9.81932C424.714 -5.23676 413.83 1.50467 413.83 1.50467C413.83 1.50467 409.244 3.92386 410.189 9.32137" fill="#090814"/>
<path d="M422.323 32.131C422.323 20.5874 412.953 11.2295 401.393 11.2295C389.834 11.2295 380.463 20.5874 380.463 32.131C380.463 41.4929 386.627 49.4162 395.123 52.0772L399.169 78.781L419.796 61.6154C419.796 61.6154 415.34 55.9474 412.95 49.5562C418.598 45.813 422.323 39.4077 422.323 32.131Z" fill="#ED9DA0"/>
<path d="M411.449 49.7879C411.449 49.7879 414.229 39.1462 409.684 34.2531C405.15 29.3711 404.564 36.9672 404.564 36.9672L401.292 36.2569C401.292 36.2569 401.861 28.8698 395.46 27.5912L399.585 18.7835C399.585 18.7835 383.791 21.8459 383.356 20.3183C379.93 8.29825 412.607 -1.96971 421.634 16.3684C435.674 44.8903 411.449 49.7879 411.449 49.7879Z" fill="#090814"/>
<path d="M392.962 68.4084C377.767 71.3736 366.362 84.0083 364.979 99.4079L355.521 204.724H372.118L392.962 68.4084Z" fill="#FF8563"/>
<path d="M377.268 152.318L374.684 182.054L444.85 161.444L436.301 139.952L452.221 103.444L419.722 56.9263L393.778 58.6928L383.755 71.6471" fill="#FF8563"/>
<path d="M434.489 180.557L444.276 164.676L434.99 158.969L425.204 174.851C422.495 175.451 419.853 177.301 418.11 180.13C415.059 185.081 415.912 191.138 420.015 193.659C424.117 196.181 429.916 194.211 432.967 189.261C434.71 186.431 435.174 183.243 434.489 180.557Z" fill="#ED9DA0"/>
<path d="M414.416 57.5149L420.074 57.2805L429.747 64.5809C441.208 66.5329 444.532 67.0801 448.044 74.6409C449.52 77.818 450.498 81.2026 451.045 84.662L459.228 136.419L438.66 185.881L425.029 170.571L439.6 131.9L437.18 122.65" fill="#FF8563"/>
</g>
<defs>
<clipPath id="clip0_2104_9">
<rect width="491" height="393" fill="white"/>
</clipPath>
</defs>
</svg>
